<?xml version="1.0" encoding="utf-8"?>
<!-- Generator: Adobe Illustrator 19.2.1, SVG Export Plug-In . SVG Version: 6.00 Build 0)  -->
<svg version="1.1" id="Layer_1" xmlns="http://www.w3.org/2000/svg" xmlns:xlink="http://www.w3.org/1999/xlink" x="0px" y="0px"
	 viewBox="0 0 44 44" style="enable-background:new 0 0 44 44;" xml:space="preserve">
<style type="text/css">
	.st0{fill:#F5F5F5;stroke:#F5F5F5;stroke-miterlimit:10;}
	.st1{fill:#F5F5F5;stroke:#F5F5F5;stroke-width:0.75;stroke-miterlimit:10;}
</style>
<g>
	<path class="st0" d="M24.4,11.3c-0.4,0-0.9,0-1.3,0.1c-2.5,0.5-2.7,4.9-2.7,10.6c0,6.1,0.5,10.2,2.8,10.6c0.4,0.1,0.8,0.1,1.2,0.1
		c0,0,0,0,0,0c2.4,0,4.6-1.2,6.3-3.3c1.6-2,2.6-4.7,2.6-7.4C33.2,16.3,29.1,11.3,24.4,11.3z M29.8,28.6c-1.8,2.2-4.2,3.3-6.6,2.9
		c-1.7-0.3-1.9-5.2-1.9-9.4c0-4.8,0.1-9.1,1.9-9.4c0.4-0.1,0.8-0.1,1.2-0.1c4.4,0,7.7,5,7.7,9.5C32.1,24.4,31.3,26.8,29.8,28.6z"/>
	<rect x="10.8" y="15.8" class="st1" width="6.2" height="1.8"/>
	<rect x="10.8" y="20.9" class="st1" width="6.2" height="1.8"/>
	<rect x="10.8" y="25.9" class="st1" width="6.2" height="1.8"/>
</g>
</svg>
