<?xml version="1.0" encoding="utf-8"?>
<!-- Generator: Adobe Illustrator 18.0.0, SVG Export Plug-In . SVG Version: 6.00 Build 0)  -->
<!DOCTYPE svg PUBLIC "-//W3C//DTD SVG 1.1//EN" "http://www.w3.org/Graphics/SVG/1.1/DTD/svg11.dtd">
<svg version="1.1" id="Layer_1" xmlns="http://www.w3.org/2000/svg" xmlns:xlink="http://www.w3.org/1999/xlink" x="0px" y="0px"
	 viewBox="0 689.8 1140 309.9" enable-background="new 0 689.8 1140 309.9" xml:space="preserve">
<g>
	<g id="gis_logo">
		<path fill="#FFFFFF" d="M103.7,801.5h96.6v126.8c-6,2-13.1,4-19.1,6c-7,2-13.1,3-20.1,4c-7,1-14.1,2-22.1,3c-8,1-16.1,1-24.1,1
			c-18.1,0-34.2-3-48.3-8s-26.1-13.1-35.3-24.1s-19-24.1-24.1-39.3c-5-16.1-7-34.2-7-54.3c0-19.1,3-36.3,8-52.3
			c5-16.1,14.1-28.1,24.1-39.3c11-11,24.1-19.1,40.3-25.1c16.1-6,34.2-9,54.3-9c13.1,0,26.1,1,38.3,4c12.1,3,24.1,6,34.2,11
			L182,747.2c-8-4-16.1-7-25.1-9c-9-3-19.1-4-30.2-4s-21.1,2-30.2,6s-17.1,9-23.1,17.1c-7,7-11,15.1-15.1,26.1c-3,10-5,22.1-5,34.2
			c0,12,1,23.1,4,33.2c2,10,6,18.1,11,26.1c5,7,12.1,13.1,20.1,17.1s18.1,6,29.2,6c7,0,13.1,0,19.1-1s10-1,14.1-2v-51.3h-46.3v-44.3
			L103.7,801.5L103.7,801.5z"/>
		<path fill="#FFFFFF" d="M367.2,938.4H256.6v-29.2l30.2-14.1v-158l-30.2-14v-28.1h110.7v29.2l-30.2,14v158l30.2,14.1V938.4z"/>
		<path fill="#FFFFFF" d="M559.4,870.9c0,11-2,21.1-6,29.2c-4,9-9,16.1-16.1,22.1c-7,6-16.1,11-26.1,14.1c-10,3-22.1,5-36.3,5
			c-12.1,0-23.1-1-34.2-4c-11-3-21.1-6-30.2-11v-48.3c5,3,11,5,16.1,7c5,2,11,5,17.1,6c6,2,11,3,17.1,4s11,2,17.1,2s10-1,15.1-2
			c4-1,7-3,10-5c3-2,4-5,5-8c1-3,2-7,2-10c0-5-1-9-3-12.1c-2-3.1-5-7-8-10c-3-3-8-6-13.1-9c-5.1-3-10-6-17.1-9c-5-3-11-6-17.1-10
			c-6-4-12.1-8-18.1-14.1c-6-6-10-12.1-14.1-20.1c-4.1-8-6-16.1-6-27.1c0-11,2-21.1,5-29.2s9-16.1,15.1-22.1c6-6,15.1-10,24.1-14.1
			c9-3,20.1-5,32.2-5c6,0,12.1,0,17.1,1c6,1,11,2,17.1,3c5,1,11,3,17.1,5c6,2,11,5,17.1,7l-17.1,40.3c-5-2-10-4-14.1-6
			c-4-2-9-3-13.1-4l-12.1-3c-4-1-8-1-12.1-1c-9,0-15.1,2-20.1,7s-7,11-7,18.1c0,4,1,8,2,11s4,6,7,9s7,6,12.1,8c5,3,11,6,18.1,10
			c8,4,16.1,9,23.1,14.1c7,5,13.1,10,18.1,15.1c5,6,9,12.1,12.1,19.1C558.4,852.8,559.4,860.9,559.4,870.9L559.4,870.9z"/>
		<path fill="#C6C6C6" d="M740.5,938.4c-3,0-4-1-5-4l-2-27.1c-7,10-16.1,18.1-26.1,24.1c-10,6-21.1,9-34.2,9
			c-21.1,0-37.3-7-49.3-22.1c-12.1-14.1-17.1-36.3-17.1-65.4c0-12.1,2-24.1,5-35.3c3-11,8-20.1,14.1-28.1c6.1-8,14.1-14.1,23.1-19.1
			s20.1-7,32.2-7c11,0,21.1,2,30.2,6c8,4,16.1,10,22.1,19.1v-98.6h16.1v248.5H740.5L740.5,938.4z M677.2,928.3c11,0,21.1-3,30.2-9
			s17.1-14.1,24.1-24.1v-89.6c-7-10-14.1-16.1-22.1-20.1c-8-4-15.1-7-25.1-7s-19.1,2-26.1,6c-7,4-14.1,9-19.1,15.1
			c-5,6.1-9,15.1-11,24.1c-3,9-4,19.1-4,31.2c0,25.1,5,44.3,14.1,56.3C646.9,922.2,660.1,928.3,677.2,928.3L677.2,928.3z"/>
		<path fill="#C6C6C6" d="M931.7,938.4c-3,0-5-2-6-5l-2-22.1c-5,5-9,9-14.1,12.1c-5,4-9,7-14.1,9c-5,2-10,4-16.1,6
			c-6,1-12.1,2-19.1,2c-6,0-11-1-17.1-3c-5-2-10-4-14.1-8c-4-4-8-8-10-14.1c-3-5-4-12.1-4-20.1c0-7,2-14.1,6-20.1
			c4-6,10-11,19.1-16.1c9-5,20.1-8,33.2-11c14.1-3,30.2-4,49.3-5v-18.1c0-16.1-3-28.1-10-36.3c-7-8-17.1-13.1-30.2-13.1
			c-8,0-15.1,1-21.1,3c-6,2-11,5-15.1,7c-4,3-7,5-10,7c-2,2-5,3-6,3c-2,0-4-1-5-3l-3-5c9-9,18.1-16.1,28.1-20.1c10-5,21.1-7,33.2-7
			c9,0,17.1,1,24.1,4c7,3,12.1,7,17.1,12.1c4,5,8,12.1,10,20.1c2,8,3,16.1,3,26.1v110.7h-6L931.7,938.4z M863.3,929.3
			c7,0,13.1-1,18.1-2s11-3,15.1-6c5-3,9-6,13.1-9c4-4,8-7,12.1-11V857c-16.1,0-30.2,2-42.3,4c-12.1,2-21.1,5-29.2,8
			c-8,3-13.1,7-17.1,12.1c-4,5-5,10-5,16.1c0,6.1,1,11,3,15.1s4,8,7,10c3,3,7,5,11,6C855.2,929.3,859.3,929.3,863.3,929.3
			L863.3,929.3z"/>
		<path fill="#C6C6C6" d="M1044.4,993.8c-1,2-2,3-3,4c-1,1-3,2-5,2h-12.1l30.2-66.4l-71.4-165h13.1c2,0,3,0,4,1c1,1,2,2,2,3
			l57.4,132.8c1,2,1,3,2,5c1,2,1,4,1,5c1-2,1-4,2-5c1-1,1-3,2-5l56.3-132.8c1-1,1-2,2-3s2-1,3-1h12.1L1044.4,993.8L1044.4,993.8z"/>
		
			<rect x="578.5" y="634.5" display="none" fill="none" stroke="#757575" stroke-width="2" stroke-miterlimit="10" width="585.6" height="396.4"/>
	</g>
</g>
</svg>
