<?xml version="1.0" encoding="utf-8"?>
<!-- Generator: Adobe Illustrator 17.1.0, SVG Export Plug-In . SVG Version: 6.00 Build 0)  -->
<!DOCTYPE svg PUBLIC "-//W3C//DTD SVG 1.1//EN" "http://www.w3.org/Graphics/SVG/1.1/DTD/svg11.dtd">
<svg version="1.1" id="Layer_1" xmlns="http://www.w3.org/2000/svg" xmlns:xlink="http://www.w3.org/1999/xlink" x="0px" y="0px"
	 viewBox="0 0 205 236.2" enable-background="new 0 0 205 236.2" xml:space="preserve">
<g id="Android">
	<path fill="#EE352A" d="M30,146.7c0,8-6.9,14.4-15,14.4h-0.3c-8.1,0-14.6-6.5-14.6-14.4V88c0-8,6.6-14.8,14.6-14.8H15
		c8.1,0,15,6.8,15,14.8V146.7z"/>
	<path fill="#EE352A" d="M61,221.7c0,8,6.6,14.4,14.6,14.4H76c8.1,0,15-6.5,15-14.4v-32.6H61V221.7z"/>
	<path fill="#EE352A" d="M113,221.7c0,8,6.6,14.4,14.6,14.4h0.3c8.1,0,15-6.5,15-14.4v-32.6h-30V221.7z"/>
	<path fill="#EE352A" d="M205,146.7c0,8-6.9,14.4-15,14.4h-0.3c-8.1,0-14.6-6.5-14.6-14.4V88c0-8,6.6-14.8,14.6-14.8h0.3
		c8.1,0,15,6.8,15,14.8V146.7z"/>
	<path fill="#EE352A" d="M166,179.9c0,5.3-3.7,9.3-9.3,9.3H48.1c-5.6,0-10.1-3.9-10.1-9.3V87.3c0-5.3,4.5-10.2,10.1-10.2h108.7
		c5.6,0,9.3,4.8,9.3,10.2V179.9z"/>
	<rect x="38" y="74.2" fill="#EE352A" width="128" height="14"/>
	<path fill="#EE352A" d="M102.2,12.7c-33.8,0-61.6,23.5-64.9,52.5h129.8C163.8,36.2,136,12.7,102.2,12.7z"/>
	<circle fill="#FFFFFF" cx="74.4" cy="40.5" r="6.9"/>
	<circle fill="#FFFFFF" cx="129.8" cy="40.5" r="6.9"/>
	<path fill="#EE352A" d="M63.2,0.5c-0.5-0.7-1.6-0.7-2.6,0c-1,0.7-1.4,1.8-1,2.5l11.6,17.1c1.3-0.6,2.6-1.2,4-1.8L63.2,0.5z"/>
	<path fill="#EE352A" d="M145.1,2.9c0.5-0.7,0-1.8-1-2.5c-1-0.7-2.2-0.7-2.6,0l-12.1,17.8c1.4,0.6,2.7,1.2,4,1.8L145.1,2.9z"/>
</g>
</svg>
