<?xml version="1.0" encoding="utf-8"?>
<!-- Generator: Adobe Illustrator 17.1.0, SVG Export Plug-In . SVG Version: 6.00 Build 0)  -->
<!DOCTYPE svg PUBLIC "-//W3C//DTD SVG 1.1//EN" "http://www.w3.org/Graphics/SVG/1.1/DTD/svg11.dtd">
<svg version="1.1" id="Layer_1" xmlns="http://www.w3.org/2000/svg" xmlns:xlink="http://www.w3.org/1999/xlink" x="0px" y="0px"
	 viewBox="0 0 229.2 281.8" enable-background="new 0 0 229.2 281.8" xml:space="preserve">
<g id="Apple">
	<path fill="#EE352A" d="M115,64c-0.2-0.3-0.3-0.7-0.4-1.2c-0.3-2.1-0.1-4.4,0-6.5c0.3-4.4,1-8.7,2.2-12.9
		c2.4-8.5,6.7-16.5,12.5-23.2C139.8,8.3,155.2,0.9,171.1,0c1.4,13.6-2.3,27.6-9.7,39c-9.4,14.4-25.6,25.4-43.2,25.7
		C116.7,64.7,115.6,64.9,115,64z"/>
	<path fill="#EE352A" d="M148,70.5c13.3-4,27.8-3.8,40.9,0.7c13.1,4.4,24.8,13.1,32.9,24.3c-17.1,10.3-28.4,29.2-30,49.1
		c-0.7,9.2,0.8,18.5,4,27.1c2.9,7.6,7.3,14.5,13,20.4c6,6.2,12.9,9.8,20.4,13.8c-2,4.2-3,9.1-4.7,13.5c-1.8,4.6-3.9,9.1-6.2,13.5
		c-4.7,9-10.4,17.1-16.6,25.2c-5.8,7.5-12.2,14.9-20.7,19.3c-4,2.1-9.5,4.2-14.1,3.9c-5.2-0.3-10.5-1.3-15.5-2.9
		c-6.6-2-12.8-5.2-19.4-7.1c-5.8-1.7-12.2-2.3-18.1-1.6c-6.4,0.7-12.5,3.3-18.3,5.8c-7.2,3.1-15.2,6.8-23.3,6.3
		c-7.4-0.4-14.5-4-20.2-8.6c-5.5-4.4-10.1-10-14.3-15.7c-6.2-8.3-11.8-17.1-16.7-26.2c-2.5-4.6-4.8-9.3-7-14.1c-2-4.4-3.3-9-5-13.5
		c-7.3-20-10.5-42.1-8.4-63.3c0.7-7.2,2.1-14.4,4.4-21.3c5.8-17.7,17.6-32.5,33.6-42.1c8.3-5,17.9-7.9,27.5-8.6
		c4.9-0.3,9.8-0.1,14.6,0.8c5.2,0.9,10.1,3.3,15,5.1c3.1,1.2,6.2,2.4,9.2,3.5c3.5,1.3,7.1,2.7,10.8,2.7c3.6,0,7.3-1.1,10.7-2.2
		C133.8,76.1,140.7,72.7,148,70.5z"/>
</g>
</svg>
