<?xml version="1.0" encoding="utf-8"?>
<!-- Generator: Adobe Illustrator 17.1.0, SVG Export Plug-In . SVG Version: 6.00 Build 0)  -->
<!DOCTYPE svg PUBLIC "-//W3C//DTD SVG 1.1//EN" "http://www.w3.org/Graphics/SVG/1.1/DTD/svg11.dtd">
<svg version="1.1" id="Layer_1" xmlns="http://www.w3.org/2000/svg" xmlns:xlink="http://www.w3.org/1999/xlink" x="0px" y="0px"
	 viewBox="0 0 1204.7 814.7" enable-background="new 0 0 1204.7 814.7" xml:space="preserve">
<path opacity="0.4" fill="none" stroke="#FFFFFF" stroke-width="4" stroke-miterlimit="10" stroke-dasharray="12" d="M10.3,0
	c0.1,6.4-4.4,47.3,7.9,62S50,82.9,68.4,88.3c50.5,14.9,100.9,29.7,151.4,44.6c65,19.2,132.9,38.5,199.6,26.4
	c73.8-13.4,134.9-63.1,201.6-97.6c93.5-48.5,195.5-60.8,299.9-47c54.8,7.3,117.4,18.2,155.9,57.9c33.3,34.3,49.7,81.3,63.1,127.2
	c35.6,122.3,56.4,248.8,61.9,376c1.9,45.2,1.9,91.1-10.2,134.7c-12.1,43.6-43.4,79.3-82.4,102.1"/>
<path opacity="0.4" fill="none" stroke="#FFFFFF" stroke-width="4" stroke-miterlimit="10" stroke-dasharray="12" d="M490.7,540
	c-80.2-56.3-174.5-92.3-271.8-103.9c-35.9-4.3-72.7-5.2-107.6,4.1c-34.9,9.3-67.9,29.9-86.3,61C13,521.6,7.7,545.3,4.8,568.9
	c-5.6,45.1-3.1,91.5,11.1,134.6c14.2,43.1,44.6,82.8,81.2,109.6"/>
</svg>
