<?xml version="1.0" encoding="utf-8"?>
<!-- Generator: Adobe Illustrator 18.0.0, SVG Export Plug-In . SVG Version: 6.00 Build 0)  -->
<!DOCTYPE svg PUBLIC "-//W3C//DTD SVG 1.1//EN" "http://www.w3.org/Graphics/SVG/1.1/DTD/svg11.dtd">
<svg version="1.1" id="Layer_1" xmlns="http://www.w3.org/2000/svg" xmlns:xlink="http://www.w3.org/1999/xlink" x="0px" y="0px"
	 width="113px" height="53.7px" viewBox="0 0 113 53.7" enable-background="new 0 0 113 53.7" xml:space="preserve">
<g id="binoculars">
	<circle fill="#FFFFFF" stroke="#500000" stroke-width="3" stroke-miterlimit="10" cx="87.7" cy="28.4" r="23.8"/>
	<circle fill="#500000" stroke="#FFFFFF" stroke-miterlimit="10" cx="87.7" cy="28.5" r="19.4"/>
	<circle fill="#FFFFFF" stroke="#500000" stroke-width="3" stroke-miterlimit="10" cx="25.3" cy="28.4" r="23.8"/>
	<path fill="#FFFFFF" stroke="#500000" stroke-width="3" stroke-miterlimit="10" d="M56.5,17.6c-4.5-0.2-9.2,1.8-9.2,1.8
		c-7-15.5-22-14.8-22-14.8c15.8-1.4,31.2-3.1,31.2-3.1s15.4,1.7,31.2,3.1c0,0-15-0.8-22,14.8C65.7,19.4,61,17.3,56.5,17.6z"/>
	<circle fill="#500000" stroke="#FFFFFF" stroke-miterlimit="10" cx="25.2" cy="28.4" r="19.4"/>
	<circle fill="#500000" cx="56.5" cy="9.6" r="6"/>
	<path fill="#500000" stroke="#FFFFFF" stroke-width="3" stroke-miterlimit="10" d="M26.7,13.3c-8.2,0-14.9,5.5-14.9,12.3"/>
	<path fill="#500000" stroke="#FFFFFF" stroke-width="3" stroke-miterlimit="10" d="M88.9,13.3c-8.2,0-14.9,5.5-14.9,12.3"/>
</g>
</svg>
