<?xml version="1.0" encoding="utf-8"?>
<!-- Generator: Adobe Illustrator 18.0.0, SVG Export Plug-In . SVG Version: 6.00 Build 0)  -->
<!DOCTYPE svg PUBLIC "-//W3C//DTD SVG 1.1//EN" "http://www.w3.org/Graphics/SVG/1.1/DTD/svg11.dtd">
<svg version="1.1" id="Layer_1" xmlns="http://www.w3.org/2000/svg" xmlns:xlink="http://www.w3.org/1999/xlink" x="0px" y="0px"
	 width="86.4px" height="71.5px" viewBox="0 0 86.4 71.5" enable-background="new 0 0 86.4 71.5" xml:space="preserve">
<g id="Google_1_">
	<line fill="none" stroke="#929292" stroke-width="0.75" stroke-miterlimit="10" x1="15.1" y1="71.2" x2="86.1" y2="13.6"/>
	<line fill="none" stroke="#929292" stroke-width="0.75" stroke-miterlimit="10" x1="32" y1="57.3" x2="0.3" y2="19.1"/>
	<line fill="none" stroke="#929292" stroke-width="0.75" stroke-miterlimit="10" x1="86.1" y1="48.7" x2="69.6" y2="27.4"/>
	<line fill="none" stroke="#929292" stroke-width="0.75" stroke-miterlimit="10" x1="86.1" y1="58.7" x2="64.7" y2="31"/>
	<line fill="none" stroke="#929292" stroke-width="0.75" stroke-miterlimit="10" x1="49.5" y1="43.3" x2="15.1" y2="0.2"/>
	<line fill="none" stroke="#929292" stroke-width="0.75" stroke-miterlimit="10" x1="35.1" y1="25.2" x2="17.7" y2="39.6"/>
	<g id="Google">
		<g>
			<path fill="#FFFFFF" d="M60,49.2c2.2,4.5-1.4,8.3-4.6,9.5c-0.7,0.3-1.5,0.5-2.3,0.6c-7.4,1.2-17.5-3.1-14.5-10.9
				c1.1-2.8,4-4.2,7-5.1c1.4-0.2,2.8-0.4,4.1-0.6c1.1,0,2.2,0,3.3,0c0.5,0.4,1,0.8,1.5,1.2C56.5,45.5,58.8,46.9,60,49.2z"/>
			<path fill="#FFFFFF" d="M56.3,21c0.6,2.2,0.7,5.7-0.4,7.5c-0.4,0.7-1,1.3-1.8,1.8c-0.7,0.5-1.5,0.9-2.5,1.1
				c-0.7,0.2-1.5,0.2-2.2,0.1c-1.3-0.2-2.4-0.8-3.1-1.4c-2.9-2.2-6.1-8.6-4.4-14.1c0.5-1.8,2-3.1,3.5-3.8c0.7-0.2,1.4-0.3,2.2-0.5
				c0,0,0,0,0,0C53.1,11.8,55.1,16.7,56.3,21z"/>
			<path fill="#929292" d="M55.4,58.7c3.2-1.2,6.8-5.1,4.6-9.5c-1.1-2.3-3.5-3.7-5.5-5.2c-0.5-0.4-1-0.8-1.5-1.2c-1.1,0-2.2,0-3.3,0
				l-0.2-1.9c0.4,0,0.7-0.1,1.1-0.1c0,0-0.1,0-0.1-0.1c-0.7-1.5-2.4-2.8-1.8-5.5c0.2-0.6,0.4-1.2,0.6-1.8l0.3-1.7
				c0.7,0.1,1.4,0.1,2.2-0.1c0.9-0.3,1.7-0.6,2.5-1.1l2.4,1.4c-0.7,0.7-1.8,1.7-1.5,3.3c0.4,2.4,5.9,5.5,7.5,7.4
				c5.4,6.3,1.3,13.9-4,17.1c-1.5,0.9-3.3,1.6-5.2,2L53,59.3C53.9,59.2,54.7,59,55.4,58.7z"/>
			<path fill="#929292" d="M50.3,9.6c5.4,0,10.8,0,16.1,0c-0.1,0-0.2,0.1-0.3,0.1c-1.3,0.8-2.6,1.6-4,2.4c-1.4,0-2.8,0-4.2,0.1
				c0,0,0.1,0,0.1,0.1c0.7,1.1,2,1.9,2.8,3c1.7,2.5,2.7,7.7,0.9,11c-1.3,2.4-3.4,3.7-5.3,5.6l-2.4-1.4c0.7-0.5,1.3-1.1,1.8-1.8
				c1-1.8,1-5.3,0.4-7.5c-1.2-4.3-3.1-9.2-8.5-9.2l-0.1-1.8C48.6,10,49.6,9.9,50.3,9.6z"/>
			<path fill="#929292" d="M38.6,48.4c-3,7.8,7.1,12.1,14.5,10.9l0.4,2.3c-6.8,1.6-15.5,0.5-19.2-3.8c-1.2-1.4-2.7-3.7-2.1-6.7
				c1.3-6,6.1-8.2,11.9-9.6c1.8-0.2,3.6-0.4,5.5-0.7l0.2,1.9c-1.4,0.2-2.8,0.4-4.1,0.6C42.5,44.3,39.6,45.6,38.6,48.4z"/>
			<path fill="#929292" d="M46.4,30.3c0.7,0.5,1.8,1.1,3.1,1.4l-0.3,1.7c0,0,0,0-0.1,0c-1.7,0.5-4.4,0.1-5.7-0.4
				c-1.4-0.5-2.5-0.8-3.6-1.6c-2.9-2.2-5.8-7.6-3.6-12.7c1.8-4.2,4.7-6.7,9.1-8.2c0.6-0.2,1.5-0.3,2.3-0.4l0.1,1.8c0,0,0,0,0,0
				c-0.7,0.2-1.4,0.3-2.2,0.5c-1.6,0.8-3,2.1-3.5,3.8C40.3,21.7,43.5,28,46.4,30.3z"/>
		</g>
		<g>
			<path fill="none" stroke="#929292" stroke-width="0.5" stroke-miterlimit="10" d="M47.6,10.1c1-0.1,2-0.2,2.7-0.5
				c5.4,0,10.8,0,16.1,0c-0.1,0-0.2,0.1-0.3,0.1c-1.3,0.8-2.6,1.6-4,2.4c-1.4,0-2.8,0-4.2,0.1c0,0,0.1,0,0.1,0.1
				c0.7,1.1,2,1.9,2.8,3c1.7,2.5,2.7,7.7,0.9,11c-1.3,2.4-3.4,3.7-5.3,5.6c-0.7,0.7-1.8,1.7-1.5,3.3c0.4,2.4,5.9,5.5,7.5,7.4
				c5.4,6.3,1.3,13.9-4,17.1c-1.5,0.9-3.3,1.6-5.2,2c-6.8,1.6-15.5,0.5-19.2-3.8c-1.2-1.4-2.7-3.7-2.1-6.7c1.3-6,6.1-8.2,11.9-9.6
				c1.8-0.2,3.6-0.4,5.5-0.7c0.4,0,0.7-0.1,1.1-0.1c0,0-0.1,0-0.1-0.1c-0.7-1.5-2.4-2.8-1.8-5.5c0.2-0.6,0.4-1.2,0.6-1.8
				c0,0,0,0-0.1,0c-1.7,0.5-4.4,0.1-5.7-0.4c-1.4-0.5-2.5-0.8-3.6-1.6c-2.9-2.2-5.8-7.6-3.6-12.7c1.8-4.2,4.7-6.7,9.1-8.2
				C45.9,10.2,46.8,10.2,47.6,10.1z"/>
			<path fill="none" stroke="#929292" stroke-width="0.5" stroke-miterlimit="10" d="M47.7,11.8C47.7,11.8,47.7,11.8,47.7,11.8
				c-0.8,0.2-1.5,0.3-2.2,0.5c-1.6,0.8-3,2.1-3.5,3.8c-1.7,5.5,1.5,11.9,4.4,14.1c0.7,0.5,1.8,1.1,3.1,1.4c0.7,0.1,1.4,0.1,2.2-0.1
				c0.9-0.3,1.7-0.6,2.5-1.1c0.7-0.5,1.3-1.1,1.8-1.8c1-1.8,1-5.3,0.4-7.5C55.1,16.7,53.1,11.8,47.7,11.8z"/>
			<path fill="none" stroke="#929292" stroke-width="0.5" stroke-miterlimit="10" d="M49.7,42.8c-1.4,0.2-2.8,0.4-4.1,0.6
				c-3,0.9-5.9,2.2-7,5.1c-3,7.8,7.1,12.1,14.5,10.9c0.8-0.1,1.6-0.3,2.3-0.6c3.2-1.2,6.8-5.1,4.6-9.5c-1.1-2.3-3.5-3.7-5.5-5.2
				c-0.5-0.4-1-0.8-1.5-1.2C51.9,42.8,50.8,42.8,49.7,42.8z"/>
		</g>
	</g>
</g>
</svg>
