<?xml version="1.0" encoding="utf-8"?>
<!-- Generator: Adobe Illustrator 18.0.0, SVG Export Plug-In . SVG Version: 6.00 Build 0)  -->
<!DOCTYPE svg PUBLIC "-//W3C//DTD SVG 1.1//EN" "http://www.w3.org/Graphics/SVG/1.1/DTD/svg11.dtd">
<svg version="1.1" id="Layer_1" xmlns="http://www.w3.org/2000/svg" xmlns:xlink="http://www.w3.org/1999/xlink" x="0px" y="0px"
	 width="86.4px" height="71.5px" viewBox="0 0 86.4 71.5" enable-background="new 0 0 86.4 71.5" xml:space="preserve">
<g id="group-c">
	<line fill="none" stroke="#929292" stroke-width="0.75" stroke-miterlimit="10" x1="32" y1="57.3" x2="0.3" y2="19.1"/>
	<line fill="none" stroke="#929292" stroke-width="0.75" stroke-miterlimit="10" x1="86.1" y1="58.7" x2="64.7" y2="31"/>
</g>
<g id="group-b">
	<line fill="none" stroke="#929292" stroke-width="0.75" stroke-miterlimit="10" x1="15.1" y1="71.2" x2="86.1" y2="13.6"/>
	<line fill="none" stroke="#929292" stroke-width="0.75" stroke-miterlimit="10" x1="49.5" y1="43.3" x2="15.1" y2="0.2"/>
</g>
<g id="group-a">
	<line fill="none" stroke="#929292" stroke-width="0.75" stroke-miterlimit="10" x1="86.1" y1="48.7" x2="69.6" y2="27.4"/>
	<line fill="none" stroke="#929292" stroke-width="0.75" stroke-miterlimit="10" x1="35.1" y1="25.2" x2="17.7" y2="39.6"/>
</g>
<path id="google-g" fill="#929292" d="M65.5,10.7c0.1,0,0.2-0.1,0.3-0.1H49.7c-0.2,0.1-0.4,0.1-0.6,0.2C48.5,11,47.7,11,47,11.1
	c-0.8,0.1-1.7,0.1-2.4,0.4c-4.4,1.5-7.3,4-9.1,8.2c-2.2,5.1,0.7,10.5,3.6,12.7c1.1,0.8,2.2,1.1,3.6,1.6c0.5,0.2,1.1,0.3,1.8,0.5
	c0.2,0,0.4,0.1,0.7,0.1c0.1,0,0.3,0,0.4,0c0.2,0,0.3,0,0.5,0c0.3,0,0.6,0,0.9,0c0.5,0,1-0.1,1.4-0.2c0.1,0,0.1,0,0.1,0
	c-0.2,0.6-0.4,1.2-0.6,1.8c-0.6,2.7,1.1,4,1.8,5.5c0,0.1,0.1,0.1,0.1,0.1c-0.3,0-0.5,0-0.8,0.1c-0.1,0-0.2,0-0.3,0
	c-1.9,0.3-3.7,0.5-5.5,0.7c-0.7,0.2-1.4,0.4-2.1,0.6c-0.3,0.1-0.6,0.2-0.8,0.3c-4.3,1.5-7.6,3.8-8.6,8.7c-0.6,3,0.9,5.3,2.1,6.7
	c3.7,4.3,12.4,5.4,19.2,3.8l0,0c1.8-0.4,3.5-1.1,4.9-1.9c5.3-3.2,9.4-10.8,4-17.1c-1.6-1.9-7.1-5-7.5-7.4c-0.3-1.6,0.8-2.6,1.5-3.3
	c0,0,0.1-0.1,0.1-0.1c1.9-1.8,3.9-3.1,5.2-5.5c1.8-3.3,0.8-8.5-0.9-11c-0.8-1.1-2.1-1.9-2.8-3c0-0.1-0.1-0.1-0.1-0.1
	c1.4-0.1,2.8-0.1,4.2-0.1C62.9,12.3,64.2,11.5,65.5,10.7z M56.2,46.7c0.1,0,0.1,0.1,0.2,0.1c1.2,1,2.4,2,3,3.4
	c0.1,0.1,0.1,0.2,0.2,0.4c0.1,0.2,0.2,0.5,0.3,0.7c0.1,0.3,0.2,0.7,0.2,1c0,0.4,0,0.8,0,1.2c0,0.2,0,0.3-0.1,0.5
	c-0.1,0.3-0.1,0.6-0.3,0.9v0c-0.1,0.3-0.2,0.6-0.4,0.9v0c-0.1,0.2-0.2,0.4-0.3,0.6c-0.5,0.7-1.1,1.4-1.7,1.9c0,0,0,0,0,0
	c-0.3,0.3-0.7,0.5-1,0.7c-0.2,0.1-0.3,0.2-0.5,0.3c-0.3,0.2-0.6,0.3-0.9,0.4c-0.4,0.1-0.7,0.3-1.1,0.4c-0.2,0-0.4,0.1-0.6,0.1
	c-0.1,0-0.2,0-0.3,0c-0.1,0-0.2,0-0.2,0c0,0-0.1,0-0.1,0C45,61.5,35,57.2,38,49.4c0.5-1.4,1.5-2.5,2.8-3.3c0,0,0,0,0.1,0
	c1.2-0.8,2.7-1.4,4.1-1.8c0.4,0,0.7-0.1,1.1-0.1c0.3-0.1,0.7-0.1,1-0.2c0,0,0,0,0,0c0.7-0.1,1.3-0.2,2-0.3h3.3
	c0.5,0.4,1,0.8,1.5,1.2C54.6,45.5,55.4,46.1,56.2,46.7z M55.3,29.5c0,0.1-0.1,0.1-0.1,0.2c-0.1,0.1-0.1,0.2-0.2,0.3
	c-0.1,0.1-0.2,0.2-0.3,0.3c-0.1,0.1-0.2,0.2-0.3,0.3c-0.3,0.3-0.6,0.5-0.9,0.7c-0.7,0.5-1.5,0.9-2.5,1.1c-0.7,0.2-1.5,0.2-2.2,0.1
	c-0.3,0-0.6-0.1-0.9-0.2c-0.1,0-0.2-0.1-0.3-0.1c-0.5-0.2-1-0.5-1.4-0.8c0,0-0.1-0.1-0.1-0.1c-0.1,0-0.1-0.1-0.2-0.1
	c-0.2-0.1-0.4-0.3-0.5-0.5c-0.3-0.2-0.5-0.5-0.8-0.8c-1.3-1.5-2.5-3.7-3.1-6.2c-0.2-0.6-0.3-1.2-0.3-1.9c0-0.2,0-0.4-0.1-0.6
	c0-0.5,0-1.1,0-1.6c0-0.2,0-0.4,0-0.6c0.1-0.6,0.2-1.2,0.4-1.8c0.5-1.7,1.9-3,3.5-3.8c0.8-0.2,1.5-0.3,2.2-0.5l0,0.1
	c5.4,0,7.3,4.9,8.5,9.2C56.2,24.3,56.2,27.7,55.3,29.5z"/>
</svg>
