<?xml version="1.0" encoding="utf-8"?>
<!-- Generator: Adobe Illustrator 18.0.0, SVG Export Plug-In . SVG Version: 6.00 Build 0)  -->
<!DOCTYPE svg PUBLIC "-//W3C//DTD SVG 1.1//EN" "http://www.w3.org/Graphics/SVG/1.1/DTD/svg11.dtd">
<svg version="1.1" id="Layer_1" xmlns="http://www.w3.org/2000/svg" xmlns:xlink="http://www.w3.org/1999/xlink" x="0px" y="0px"
	 width="96.8px" height="121px" viewBox="0 0 96.8 121" enable-background="new 0 0 96.8 121" xml:space="preserve">
<g id="pointing-hand_1_">
	<path id="hand_1_" fill="#FFFFFF" d="M96.7,54.3v20.3c0,0.2,0.1,0.4,0.1,0.6c-1.4,25.2-16,45.6-36.5,45.8
		c-20.6,0.2-33.8-20.6-34.1-45.8c0-0.2,0.6-0.4,0.6-0.6V54.3H96.7z"/>
	<path id="pointing_finger_1_" fill="#FFFFFF" d="M42.3,8.4v52.4c0,4.3-3.5,7.7-7.7,7.7h-0.6c-4.6,0-8.3-3.7-8.3-8.3V8.3
		c0-4.6,3.7-8.3,8.3-8.3h0C38.5,0,42.3,3.8,42.3,8.4z"/>
	<path id="middle_finger_1_" fill="#FFFFFF" d="M60.9,29.9v27c0,4.3-3.5,7.7-7.7,7.7H52c-4.3,0-7.7-3.5-7.7-7.7v-27
		c0-4.6,3.7-8.3,8.3-8.3h0C57.1,21.5,60.9,25.3,60.9,29.9z"/>
	<path id="ring_finger_1_" fill="#FFFFFF" d="M79,34.2v21.7c0,4.3-3.5,7.7-7.7,7.7h-1.2c-4.3,0-7.7-3.5-7.7-7.7V34.1
		c0-4.6,3.7-8.3,8.3-8.3h0C75.3,25.8,79,29.6,79,34.2z"/>
	<path id="pinky_1_" fill="#FFFFFF" d="M96.6,38.9V75h-8c-4.4,0-8-3.6-8-8v-28c0-4.4,3.6-8,8-8h0C93,30.8,96.6,34.4,96.6,38.9z"/>
	<path id="thumb_1_" fill="#FFFFFF" d="M20.1,52.3L47.7,96c2.3,3.6,1.2,8.4-2.4,10.7l0,0c-4.1,2.6-9.6,1.4-12.3-2.7L0.5,52.5
		c-0.9-1.5-0.5-3.5,1-4.4l0,0C7.7,44.2,16.1,46,20.1,52.3z"/>
</g>
</svg>
