<?xml version="1.0" encoding="utf-8"?>
<!-- Generator: Adobe Illustrator 18.0.0, SVG Export Plug-In . SVG Version: 6.00 Build 0)  -->
<!DOCTYPE svg PUBLIC "-//W3C//DTD SVG 1.1//EN" "http://www.w3.org/Graphics/SVG/1.1/DTD/svg11.dtd">
<svg version="1.1" id="Layer_1" xmlns="http://www.w3.org/2000/svg" xmlns:xlink="http://www.w3.org/1999/xlink" x="0px" y="0px"
	 width="93.7px" height="121px" viewBox="0 0 93.7 121" enable-background="new 0 0 93.7 121" xml:space="preserve">
<g id="notebook">
	<path fill="#929292" d="M91.7,121H6.1c-1.1,0-2-0.9-2-2V5.3c0-1.1,0.9-2,2-2h85.6c1.1,0,2,0.9,2,2V119
		C93.7,120.1,92.8,121,91.7,121z"/>
	<path fill="#FFFFFF" d="M87.6,117.7H2c-1.1,0-2-0.9-2-2V2c0-1.1,0.9-2,2-2h85.6c1.1,0,2,0.9,2,2v113.7
		C89.6,116.8,88.7,117.7,87.6,117.7z"/>
	<path fill="#929292" d="M83.9,15.2H13.4c-0.5,0-1-0.4-1-1V8.6c0-0.6,0.5-1,1-1h70.5c0.6,0,1,0.4,1,1v5.7
		C84.9,14.8,84.4,15.2,83.9,15.2z"/>
	
		<line fill="none" stroke="#929292" stroke-width="0.75" stroke-linecap="round" stroke-miterlimit="10" x1="12.4" y1="25.7" x2="84.9" y2="25.7"/>
	
		<line fill="none" stroke="#929292" stroke-width="0.75" stroke-linecap="round" stroke-miterlimit="10" x1="12.4" y1="33.4" x2="64.5" y2="33.4"/>
	
		<line fill="none" stroke="#929292" stroke-width="0.75" stroke-linecap="round" stroke-miterlimit="10" x1="12.4" y1="41" x2="79.1" y2="41"/>
	
		<line fill="none" stroke="#929292" stroke-width="0.75" stroke-linecap="round" stroke-miterlimit="10" x1="12.4" y1="48.7" x2="79.1" y2="48.7"/>
	
		<line fill="none" stroke="#929292" stroke-width="0.75" stroke-linecap="round" stroke-miterlimit="10" x1="12.4" y1="60.2" x2="79.1" y2="60.2"/>
	
		<line fill="none" stroke="#929292" stroke-width="0.75" stroke-linecap="round" stroke-miterlimit="10" x1="12.4" y1="67.8" x2="45.7" y2="67.8"/>
	
		<line fill="none" stroke="#929292" stroke-width="0.75" stroke-linecap="round" stroke-miterlimit="10" x1="12.4" y1="75.5" x2="33.9" y2="75.5"/>
	
		<line fill="none" stroke="#929292" stroke-width="0.75" stroke-linecap="round" stroke-miterlimit="10" x1="12.4" y1="83.1" x2="62" y2="83.1"/>
	
		<line fill="none" stroke="#929292" stroke-width="0.75" stroke-linecap="round" stroke-miterlimit="10" x1="12.4" y1="90.8" x2="79.1" y2="90.8"/>
	
		<line fill="none" stroke="#929292" stroke-width="0.75" stroke-linecap="round" stroke-miterlimit="10" x1="12.4" y1="98.4" x2="79.1" y2="98.4"/>
	<path fill="#929292" d="M6.6,26.1h-3c-0.3,0-0.5-0.2-0.5-0.5v-3c0-0.3,0.2-0.5,0.5-0.5h3c0.3,0,0.5,0.2,0.5,0.5v3
		C7.1,25.9,6.9,26.1,6.6,26.1z"/>
	<path fill="#929292" d="M6.6,60.6h-3c-0.3,0-0.5-0.2-0.5-0.5v-3c0-0.3,0.2-0.5,0.5-0.5h3c0.3,0,0.5,0.2,0.5,0.5v3
		C7.1,60.3,6.9,60.6,6.6,60.6z"/>
	<path fill="#929292" d="M6.6,95h-3c-0.3,0-0.5-0.2-0.5-0.5v-3c0-0.3,0.2-0.5,0.5-0.5h3c0.3,0,0.5,0.2,0.5,0.5v3
		C7.1,94.8,6.9,95,6.6,95z"/>
</g>
</svg>
