<?xml version="1.0" encoding="utf-8"?>
<!-- Generator: Adobe Illustrator 18.0.0, SVG Export Plug-In . SVG Version: 6.00 Build 0)  -->
<!DOCTYPE svg PUBLIC "-//W3C//DTD SVG 1.1//EN" "http://www.w3.org/Graphics/SVG/1.1/DTD/svg11.dtd">
<svg version="1.1" id="Layer_1" xmlns="http://www.w3.org/2000/svg" xmlns:xlink="http://www.w3.org/1999/xlink" x="0px" y="0px"
	 viewBox="0 0 1920 420" enable-background="new 0 0 1920 420" xml:space="preserve">
<rect id="gas-hero-base" fill="#23A1D1" width="1920" height="420"/>
<path fill="#56A835" d="M0,204.6c0,0,668.6-19.1,992-6c323.4,13.1,928,0.7,928,0.7V420H0V204.6z"/>
<g id="house">
	<path fill="#0E2833" d="M774.1,173.1L756.6,187h4.4v21h26v-21h4.5L774.1,173.1z M769,195h-5v-5h5V195z M785,205h-5v-5h5V205z"/>
	<rect x="770.2" y="197.3" fill="#FBA953" width="7.7" height="10.7"/>
	<rect x="764" y="192.2" fill="#FFFFFF" width="5" height="0.4"/>
	<rect x="766.3" y="190" fill="#FFFFFF" width="0.4" height="5"/>
	<rect x="780" y="202.2" fill="#FFFFFF" width="5" height="0.4"/>
	<rect x="782.3" y="200" fill="#FFFFFF" width="0.4" height="5"/>
	<circle fill="none" stroke="#0E2833" stroke-width="0.25" stroke-miterlimit="10" cx="776.4" cy="203.6" r="0.4"/>
</g>
<g id="house_13_">
	<path fill="#0E2833" d="M846.1,173.1L828.6,187h4.4v21h26v-21h4.5L846.1,173.1z M841,195h-5v-5h5V195z M857,205h-5v-5h5V205z"/>
	<rect x="842.2" y="197.3" fill="#FBA953" width="7.7" height="10.7"/>
	<rect x="836" y="192.2" fill="#FFFFFF" width="5" height="0.4"/>
	<rect x="838.3" y="190" fill="#FFFFFF" width="0.4" height="5"/>
	<rect x="852" y="202.2" fill="#FFFFFF" width="5" height="0.4"/>
	<rect x="854.3" y="200" fill="#FFFFFF" width="0.4" height="5"/>
	<circle fill="none" stroke="#0E2833" stroke-width="0.25" stroke-miterlimit="10" cx="848.4" cy="203.6" r="0.4"/>
</g>
<g id="house_34_">
	<path fill="#0E2833" d="M1073.1,179.1l-17.5,13.9h4.4v21h26v-21h4.6L1073.1,179.1z M1068,201h-5v-5h5V201z M1084,211h-5v-5h5V211z"
		/>
	<rect x="1069.2" y="203.3" fill="#FBA953" width="7.7" height="10.7"/>
	<rect x="1063" y="198.2" fill="#FFFFFF" width="5" height="0.4"/>
	<rect x="1065.3" y="196" fill="#FFFFFF" width="0.4" height="5"/>
	<rect x="1079" y="208.2" fill="#FFFFFF" width="5" height="0.4"/>
	<rect x="1081.3" y="206" fill="#FFFFFF" width="0.4" height="5"/>
	<circle fill="none" stroke="#0E2833" stroke-width="0.25" stroke-miterlimit="10" cx="1075.4" cy="209.6" r="0.4"/>
</g>
<g id="house_33_">
	<path fill="#0E2833" d="M1177.1,181.1l-17.5,13.9h4.4v21h26v-21h4.6L1177.1,181.1z M1172,203h-5v-5h5V203z M1188,213h-5v-5h5V213z"
		/>
	<rect x="1173.2" y="205.3" fill="#FBA953" width="7.7" height="10.7"/>
	<rect x="1167" y="200.2" fill="#FFFFFF" width="5" height="0.4"/>
	<rect x="1169.3" y="198" fill="#FFFFFF" width="0.4" height="5"/>
	<rect x="1183" y="210.2" fill="#FFFFFF" width="5" height="0.4"/>
	<rect x="1185.3" y="208" fill="#FFFFFF" width="0.4" height="5"/>
	<circle fill="none" stroke="#0E2833" stroke-width="0.25" stroke-miterlimit="10" cx="1179.4" cy="211.6" r="0.4"/>
</g>
<g id="house_32_">
	<path fill="#0E2833" d="M1265.1,181.1l-17.5,13.9h4.4v21h26v-21h4.6L1265.1,181.1z M1260,203h-5v-5h5V203z M1276,213h-5v-5h5V213z"
		/>
	<rect x="1261.2" y="205.3" fill="#FBA953" width="7.7" height="10.7"/>
	<rect x="1255" y="200.2" fill="#FFFFFF" width="5" height="0.4"/>
	<rect x="1257.3" y="198" fill="#FFFFFF" width="0.4" height="5"/>
	<rect x="1271" y="210.2" fill="#FFFFFF" width="5" height="0.4"/>
	<rect x="1273.3" y="208" fill="#FFFFFF" width="0.4" height="5"/>
	<circle fill="none" stroke="#0E2833" stroke-width="0.25" stroke-miterlimit="10" cx="1267.4" cy="211.6" r="0.4"/>
</g>
<g id="house_31_">
	<path fill="#0E2833" d="M1383.1,182.1l-17.5,13.9h4.4v21h26v-21h4.6L1383.1,182.1z M1378,204h-5v-5h5V204z M1394,214h-5v-5h5V214z"
		/>
	<rect x="1379.2" y="206.3" fill="#FBA953" width="7.7" height="10.7"/>
	<rect x="1373" y="201.2" fill="#FFFFFF" width="5" height="0.4"/>
	<rect x="1375.3" y="199" fill="#FFFFFF" width="0.4" height="5"/>
	<rect x="1389" y="211.2" fill="#FFFFFF" width="5" height="0.4"/>
	<rect x="1391.3" y="209" fill="#FFFFFF" width="0.4" height="5"/>
	<circle fill="none" stroke="#0E2833" stroke-width="0.25" stroke-miterlimit="10" cx="1385.4" cy="212.6" r="0.4"/>
</g>
<g id="house_30_">
	<path fill="#0E2833" d="M1477.1,181.1l-17.5,13.9h4.4v21h26v-21h4.6L1477.1,181.1z M1472,203h-5v-5h5V203z M1488,213h-5v-5h5V213z"
		/>
	<rect x="1473.2" y="205.3" fill="#FBA953" width="7.7" height="10.7"/>
	<rect x="1467" y="200.2" fill="#FFFFFF" width="5" height="0.4"/>
	<rect x="1469.3" y="198" fill="#FFFFFF" width="0.4" height="5"/>
	<rect x="1483" y="210.2" fill="#FFFFFF" width="5" height="0.4"/>
	<rect x="1485.3" y="208" fill="#FFFFFF" width="0.4" height="5"/>
	<circle fill="none" stroke="#0E2833" stroke-width="0.25" stroke-miterlimit="10" cx="1479.4" cy="211.6" r="0.4"/>
</g>
<g id="house_27_">
	<path fill="#0E2833" d="M1553.1,182.1l-17.5,13.9h4.4v21h26v-21h4.6L1553.1,182.1z M1548,204h-5v-5h5V204z M1564,214h-5v-5h5V214z"
		/>
	<rect x="1549.2" y="206.3" fill="#FBA953" width="7.7" height="10.7"/>
	<rect x="1543" y="201.2" fill="#FFFFFF" width="5" height="0.4"/>
	<rect x="1545.3" y="199" fill="#FFFFFF" width="0.4" height="5"/>
	<rect x="1559" y="211.2" fill="#FFFFFF" width="5" height="0.4"/>
	<rect x="1561.3" y="209" fill="#FFFFFF" width="0.4" height="5"/>
	<circle fill="none" stroke="#0E2833" stroke-width="0.25" stroke-miterlimit="10" cx="1555.4" cy="212.6" r="0.4"/>
</g>
<g id="house_26_">
	<path fill="#0E2833" d="M1634.1,181.1l-17.5,13.9h4.4v21h26v-21h4.6L1634.1,181.1z M1629,203h-5v-5h5V203z M1645,213h-5v-5h5V213z"
		/>
	<rect x="1630.2" y="205.3" fill="#FBA953" width="7.7" height="10.7"/>
	<rect x="1624" y="200.2" fill="#FFFFFF" width="5" height="0.4"/>
	<rect x="1626.3" y="198" fill="#FFFFFF" width="0.4" height="5"/>
	<rect x="1640" y="210.2" fill="#FFFFFF" width="5" height="0.4"/>
	<rect x="1642.3" y="208" fill="#FFFFFF" width="0.4" height="5"/>
	<circle fill="none" stroke="#0E2833" stroke-width="0.25" stroke-miterlimit="10" cx="1636.4" cy="211.6" r="0.4"/>
</g>
<g id="house_25_">
	<path fill="#0E2833" d="M1746.1,179.1l-17.5,13.9h4.4v21h26v-21h4.6L1746.1,179.1z M1741,201h-5v-5h5V201z M1757,211h-5v-5h5V211z"
		/>
	<rect x="1742.2" y="203.3" fill="#FBA953" width="7.7" height="10.7"/>
	<rect x="1736" y="198.2" fill="#FFFFFF" width="5" height="0.4"/>
	<rect x="1738.3" y="196" fill="#FFFFFF" width="0.4" height="5"/>
	<rect x="1752" y="208.2" fill="#FFFFFF" width="5" height="0.4"/>
	<rect x="1754.3" y="206" fill="#FFFFFF" width="0.4" height="5"/>
	<circle fill="none" stroke="#0E2833" stroke-width="0.25" stroke-miterlimit="10" cx="1748.4" cy="209.6" r="0.4"/>
</g>
<g id="house_24_">
	<path fill="#0E2833" d="M1853.1,178.1l-17.5,13.9h4.4v21h26v-21h4.6L1853.1,178.1z M1848,200h-5v-5h5V200z M1864,210h-5v-5h5V210z"
		/>
	<rect x="1849.2" y="202.3" fill="#FBA953" width="7.7" height="10.7"/>
	<rect x="1843" y="197.2" fill="#FFFFFF" width="5" height="0.4"/>
	<rect x="1845.3" y="195" fill="#FFFFFF" width="0.4" height="5"/>
	<rect x="1859" y="207.2" fill="#FFFFFF" width="5" height="0.4"/>
	<rect x="1861.3" y="205" fill="#FFFFFF" width="0.4" height="5"/>
	<circle fill="none" stroke="#0E2833" stroke-width="0.25" stroke-miterlimit="10" cx="1855.4" cy="208.6" r="0.4"/>
</g>
<g id="house_1_">
	<path fill="#0E2833" d="M694.1,172.1L676.6,186h4.4v21h26v-21h4.5L694.1,172.1z M689,194h-5v-5h5V194z M705,204h-5v-5h5V204z"/>
	<rect x="690.2" y="196.3" fill="#FBA953" width="7.7" height="10.7"/>
	<rect x="684" y="191.2" fill="#FFFFFF" width="5" height="0.4"/>
	<rect x="686.3" y="189" fill="#FFFFFF" width="0.4" height="5"/>
	<rect x="700" y="201.2" fill="#FFFFFF" width="5" height="0.4"/>
	<rect x="702.3" y="199" fill="#FFFFFF" width="0.4" height="5"/>
	<circle fill="none" stroke="#0E2833" stroke-width="0.25" stroke-miterlimit="10" cx="696.4" cy="202.6" r="0.4"/>
</g>
<g id="house_8_">
	<path fill="#0E2833" d="M615.1,173.1L597.6,187h4.4v21h26v-21h4.5L615.1,173.1z M610,195h-5v-5h5V195z M626,205h-5v-5h5V205z"/>
	<rect x="611.2" y="197.3" fill="#FBA953" width="7.7" height="10.7"/>
	<rect x="605" y="192.2" fill="#FFFFFF" width="5" height="0.4"/>
	<rect x="607.3" y="190" fill="#FFFFFF" width="0.4" height="5"/>
	<rect x="621" y="202.2" fill="#FFFFFF" width="5" height="0.4"/>
	<rect x="623.3" y="200" fill="#FFFFFF" width="0.4" height="5"/>
	<circle fill="none" stroke="#0E2833" stroke-width="0.25" stroke-miterlimit="10" cx="617.4" cy="203.6" r="0.4"/>
</g>
<g id="house_9_">
	<path fill="#0E2833" d="M527.1,173.1L509.6,187h4.4v21h26v-21h4.5L527.1,173.1z M522,195h-5v-5h5V195z M538,205h-5v-5h5V205z"/>
	<rect x="523.2" y="197.3" fill="#FBA953" width="7.7" height="10.7"/>
	<rect x="517" y="192.2" fill="#FFFFFF" width="5" height="0.4"/>
	<rect x="519.3" y="190" fill="#FFFFFF" width="0.4" height="5"/>
	<rect x="533" y="202.2" fill="#FFFFFF" width="5" height="0.4"/>
	<rect x="535.3" y="200" fill="#FFFFFF" width="0.4" height="5"/>
	<circle fill="none" stroke="#0E2833" stroke-width="0.25" stroke-miterlimit="10" cx="529.4" cy="203.6" r="0.4"/>
</g>
<g id="house_10_">
	<path fill="#0E2833" d="M451.1,173.1L433.6,187h4.4v21h26v-21h4.5L451.1,173.1z M446,195h-5v-5h5V195z M462,205h-5v-5h5V205z"/>
	<rect x="447.2" y="197.3" fill="#FBA953" width="7.7" height="10.7"/>
	<rect x="441" y="192.2" fill="#FFFFFF" width="5" height="0.4"/>
	<rect x="443.3" y="190" fill="#FFFFFF" width="0.4" height="5"/>
	<rect x="457" y="202.2" fill="#FFFFFF" width="5" height="0.4"/>
	<rect x="459.3" y="200" fill="#FFFFFF" width="0.4" height="5"/>
	<circle fill="none" stroke="#0E2833" stroke-width="0.25" stroke-miterlimit="10" cx="453.4" cy="203.6" r="0.4"/>
</g>
<g id="house_11_">
	<path fill="#0E2833" d="M360.1,175.1L342.6,189h4.4v21h26v-21h4.5L360.1,175.1z M355,197h-5v-5h5V197z M371,207h-5v-5h5V207z"/>
	<rect x="356.2" y="199.3" fill="#FBA953" width="7.7" height="10.7"/>
	<rect x="350" y="194.2" fill="#FFFFFF" width="5" height="0.4"/>
	<rect x="352.3" y="192" fill="#FFFFFF" width="0.4" height="5"/>
	<rect x="366" y="204.2" fill="#FFFFFF" width="5" height="0.4"/>
	<rect x="368.3" y="202" fill="#FFFFFF" width="0.4" height="5"/>
	<circle fill="none" stroke="#0E2833" stroke-width="0.25" stroke-miterlimit="10" cx="362.4" cy="205.6" r="0.4"/>
</g>
<g id="house_12_">
	<path fill="#0E2833" d="M276.1,176.1L258.6,190h4.4v21h26v-21h4.5L276.1,176.1z M271,198h-5v-5h5V198z M287,208h-5v-5h5V208z"/>
	<rect x="272.2" y="200.3" fill="#FBA953" width="7.7" height="10.7"/>
	<rect x="266" y="195.2" fill="#FFFFFF" width="5" height="0.4"/>
	<rect x="268.3" y="193" fill="#FFFFFF" width="0.4" height="5"/>
	<rect x="282" y="205.2" fill="#FFFFFF" width="5" height="0.4"/>
	<rect x="284.3" y="203" fill="#FFFFFF" width="0.4" height="5"/>
	<circle fill="none" stroke="#0E2833" stroke-width="0.25" stroke-miterlimit="10" cx="278.4" cy="206.6" r="0.4"/>
</g>
<g id="stairs">
	<line fill="none" stroke="#0E2833" stroke-miterlimit="10" x1="912.5" y1="205" x2="912.5" y2="213"/>
	<line fill="none" stroke="#0E2833" stroke-miterlimit="10" x1="914.5" y1="204" x2="914.5" y2="212"/>
	<line fill="none" stroke="#0E2833" stroke-miterlimit="10" x1="910.5" y1="206" x2="910.5" y2="214"/>
	<line fill="none" stroke="#0E2833" stroke-miterlimit="10" x1="908.5" y1="207" x2="908.5" y2="215"/>
	<line fill="none" stroke="#0E2833" stroke-miterlimit="10" x1="906.5" y1="209" x2="906.5" y2="215"/>
	<line fill="none" stroke="#0E2833" stroke-miterlimit="10" x1="904.5" y1="210" x2="904.5" y2="216"/>
	<line fill="none" stroke="#0E2833" stroke-miterlimit="10" x1="916.1" y1="202.5" x2="896.1" y2="215.5"/>
</g>
<g id="house_20_">
	<path fill="#0E2833" d="M193.1,177.1L175.6,191h4.4v21h26v-21h4.5L193.1,177.1z M188,199h-5v-5h5V199z M204,209h-5v-5h5V209z"/>
	<rect x="189.2" y="201.3" fill="#FBA953" width="7.7" height="10.7"/>
	<rect x="183" y="196.2" fill="#FFFFFF" width="5" height="0.4"/>
	<rect x="185.3" y="194" fill="#FFFFFF" width="0.4" height="5"/>
	<rect x="199" y="206.2" fill="#FFFFFF" width="5" height="0.4"/>
	<rect x="201.3" y="204" fill="#FFFFFF" width="0.4" height="5"/>
	<circle fill="none" stroke="#0E2833" stroke-width="0.25" stroke-miterlimit="10" cx="195.4" cy="207.6" r="0.4"/>
</g>
<g id="house_21_">
	<path fill="#0E2833" d="M125.1,179.1L107.6,193h4.4v21h26v-21h4.5L125.1,179.1z M120,201h-5v-5h5V201z M136,211h-5v-5h5V211z"/>
	<rect x="121.2" y="203.3" fill="#FBA953" width="7.7" height="10.7"/>
	<rect x="115" y="198.2" fill="#FFFFFF" width="5" height="0.4"/>
	<rect x="117.3" y="196" fill="#FFFFFF" width="0.4" height="5"/>
	<rect x="131" y="208.2" fill="#FFFFFF" width="5" height="0.4"/>
	<rect x="133.3" y="206" fill="#FFFFFF" width="0.4" height="5"/>
	<circle fill="none" stroke="#0E2833" stroke-width="0.25" stroke-miterlimit="10" cx="127.4" cy="209.6" r="0.4"/>
</g>
<g id="house_22_">
	<path fill="#0E2833" d="M47.1,181.1L29.6,195H34v21h26v-21h4.5L47.1,181.1z M42,203h-5v-5h5V203z M58,213h-5v-5h5V213z"/>
	<rect x="43.2" y="205.3" fill="#FBA953" width="7.7" height="10.7"/>
	<rect x="37" y="200.2" fill="#FFFFFF" width="5" height="0.4"/>
	<rect x="39.3" y="198" fill="#FFFFFF" width="0.4" height="5"/>
	<rect x="53" y="210.2" fill="#FFFFFF" width="5" height="0.4"/>
	<rect x="55.3" y="208" fill="#FFFFFF" width="0.4" height="5"/>
	<circle fill="none" stroke="#0E2833" stroke-width="0.25" stroke-miterlimit="10" cx="49.4" cy="211.6" r="0.4"/>
</g>
<g>
	<linearGradient id="SVGID_1_" gradientUnits="userSpaceOnUse" x1="959" y1="206.9743" x2="959" y2="421">
		<stop  offset="0" style="stop-color:#8C6534"/>
		<stop  offset="1" style="stop-color:#775531"/>
	</linearGradient>
	<path fill="url(#SVGID_1_)" d="M-1,217c0,0,668.6-18,992-5.7c323.4,12.4,928,0.7,928,0.7v209H-1V217z"/>
	<g>
		<g>
			<g>
				<g>
					<path fill="#886B4B" d="M0.2,217c-0.1-2.2-0.3-1-0.2,5.2l0.3,4.4L0.2,217z"/>
					<path fill="#886B4B" d="M-0.4,258.5c0.2,7.3,0.4,15.6,0.7,10.9c-0.3-7.2-0.2-8.9-0.6-16.7c0-6.2,0.1-10.8,0.2-9.7
						c-0.1-2.2,0.1-9.6-0.1-12.9c-0.3,8-0.3,18.2-0.1,28.8C-0.3,261.2-0.4,259-0.4,258.5z"/>
					<path fill="#886B4B" d="M440.5,421l-3.9,0C437.7,420.9,439,420.9,440.5,421z"/>
					<path fill="#886B4B" d="M814.1,421.1c-2.8,0-4,0-4.2,0.1C812.6,421.2,814.8,421.2,814.1,421.1z"/>
					<path fill="#886B4B" d="M877.9,421.5c-1.4,0-2.5,0-3.8,0C875.6,421.5,877,421.5,877.9,421.5z"/>
					<path fill="#886B4B" d="M440.5,421l10,0.1C451.2,421,445.4,421,440.5,421z"/>
					<path fill="#886B4B" d="M0.4,341.6c0-2.1,0-3.8-0.1-5.4c0,1.7,0,3.4,0,5.1C0.3,341.4,0.3,341.5,0.4,341.6z"/>
					<path fill="#886B4B" d="M275.8,421.2l-3,0c-0.9,0-1.7,0.1-2.5,0.1L275.8,421.2z"/>
					<path fill="#886B4B" d="M149.4,421.3c2.9,0,3.9-0.3,4.9-0.4c-1.6,0.1-3.7,0.2-6.2,0.2C148.1,421.1,148.4,421.2,149.4,421.3z"/>
					<path fill="#886B4B" d="M-0.8,370l0-3.6C-0.8,367.3-0.8,368.9-0.8,370z"/>
					<path fill="#886B4B" d="M366.3,421.3c0.2,0,0.7,0.1,1.2,0.1C367.4,421.4,367,421.3,366.3,421.3z"/>
					<path fill="#886B4B" d="M146,214.9C146.1,214.9,146,214.8,146,214.9C145.3,214.9,145,214.9,146,214.9z"/>
					<path fill="#886B4B" d="M-0.5,216.9l2-0.1c0.2-0.1,0.4-0.1,0.4-0.2L-0.5,216.9z"/>
					<path fill="#886B4B" d="M994.7,421.9c-0.2,0-0.3,0-0.5,0C991.1,421.9,992.8,421.9,994.7,421.9z"/>
					<path fill="#886B4B" d="M1920.7,273.6c-0.3,12.1-0.3-19.8-0.6-1.5C1920.2,270.4,1920.5,288.7,1920.7,273.6z"/>
					<path fill="#886B4B" d="M0.3,344.9c0,1.7,0,3.4,0,5.2C0.3,347.7,0.3,346.1,0.3,344.9z"/>
					<path fill="#886B4B" d="M1920.1,272.1L1920.1,272.1l0,1.9C1920,273.2,1920.1,272.8,1920.1,272.1z"/>
					<path fill="#886B4B" d="M1263.7,421.7c-0.6,0-1.6-0.1-2.7-0.1C1261,421.6,1261.6,421.6,1263.7,421.7z"/>
					<path fill="#886B4B" d="M1063.3,421.3l5,0C1066.3,421.3,1064.7,421.3,1063.3,421.3z"/>
					<path fill="#886B4B" d="M1367.7,421.3c2.7,0,3.6,0.1,7.3,0c-0.3,0-0.7,0-1.1,0C1372.6,421.3,1370.8,421.3,1367.7,421.3z"/>
					<path fill="#886B4B" d="M1476,421.3c-0.6,0-1.3,0-2-0.1c-1.1,0-2.3,0-3.4,0L1476,421.3z"/>
					<path fill="#886B4B" d="M475.1,209.4c-2.4-0.1-3.8-0.1-5-0.2C471.8,209.4,455.8,209.7,475.1,209.4z"/>
					<path fill="#886B4B" d="M0.2,341.7c0.1,0.6,0.1,1.6,0.1,3.2c0-1.2,0-2.4,0-3.6C0.3,341,0.2,340.9,0.2,341.7z"/>
					<path fill="#886B4B" d="M1372.1,419.1l17.2,0C1384.5,419.1,1378.3,419.1,1372.1,419.1z"/>
					<path fill="#886B4B" d="M1251.9,217.6l-4,0C1249.5,217.6,1250.9,217.6,1251.9,217.6z"/>
					<path fill="#886B4B" d="M1440.4,419.1c3.1,0.1,6.3,0.2,9.7,0.2c0.7,0,1.5,0,2-0.1L1440.4,419.1z"/>
					<path fill="#886B4B" d="M470,209.2C470.1,209.2,470.1,209.2,470,209.2C470.1,209.2,470.1,209.2,470,209.2z"/>
					<path fill="#886B4B" d="M356.7,211.4c16.4-0.2,7.7-0.5,11.2-0.7c19.6-0.4,9.1,0.1,15.7,0.2c12.2-0.3,21.6-0.7,30.7-0.8
						c0.7,0.1,2.5,0.1,0.4,0.2c12.9-0.4,38.3-0.5,53.4-1c1.1,0,1.7,0,2,0.1c-2.4-0.2-2.8-0.3-2.3-0.5c7.3-0.1,13.6-0.4,16.4-0.2
						c-4.5,0-4.9,0.1-7,0.2l7.7-0.2c6.9,0.3-10.5,0.2-10.5,0.5c15-0.3,32.5-0.7,44-0.7c2.4,0.3-26.9,0.4-11.5,0.5l-17.8,0
						c13.6,0.4-10.8,0.1,1.7,0.5c23.4-0.1,26.2-0.4,49.6-0.5c5.3-0.2-1.7-0.3,3.5-0.5c33.2-0.5,26.2,0.7,50.6,0.1
						c6.3-0.3,8.8-0.7,26.2-0.6l-5.9,0.4c22.7,0,12.9-0.6,36.7-0.4c-4.2,0.2-17.8,0.2-14.4,0.2c15.4,0.3,10.9-0.2,22.7-0.3l2.5,0.3
						c12.1-0.1,24.8-0.2,37.8-0.3c13,0,26.4,0,39.7-0.1c-1.5,0.1-6.1,0.2,0.2,0.3c8.4,0,17.2,0,26,0c4.4,0,8.9,0,13.3,0.1
						c4.5,0.1,8.9,0.1,13.4,0.2c17.9,0.3,35.6,0.5,51.8,0.8l12.4-0.2c2.9,0.1,5.4,0.2,2.2,0.2c12.7,0.3,0.7-0.2,6.8-0.2
						c7.2,0.1,9.5,0.3,5,0.3c11.2,0.1,27.1,0.3,43.2,0.5c4,0.1,8.1,0.1,12,0.2c4,0.1,7.9,0.2,11.6,0.3c7.5,0.2,14.5,0.5,20.4,0.8
						l-4.6-0.1c18.3,0.7,20.7,0,37.7,0.8l-3.3,0c19.9,0.6,40.9,1.3,60.7,2c4.9,0.2,9.8,0.3,14.6,0.4c4.8,0.1,9.4,0.2,13.9,0.3
						c9,0.2,17.5,0.5,25.1,0.8c2.9-0.1,12.8,0.1,22.2,0.4c9.5,0.2,18.5,0.3,19.8,0c22.8,0.6,16.2,0.6,48.3,1.3
						c8.6,0.2,12.8-0.2,23.3-0.2l0.3,0.3l14.4-0.2l7.6,0.4l9.9,0c-4-0.1-8.4-0.2-7.8-0.3c7.8,0,17.2,0.1,24.8,0.3
						c3.8,0.1,7.1,0.2,9.5,0.2c2.4,0.1,3.9,0.1,3.9,0.2l36.7-0.1c-0.8,0.1-7,0.1-11.8,0.2c19.6-0.2,3.6,0.3,21.5,0.1
						c-2.4-0.1,1.3-0.2,1.7-0.2c8.9,0.2,29.3,0.3,44.4,0.2l-2.9,0.2c27.2,0,57.4,0,87.9-0.2c-11-0.1-8.4-0.4,0.5-0.5l3.6,0.3
						c5.8-0.2-9.4-0.1,2.5-0.4c11.4,0,7.7,0.3,1.1,0.5l13.9-0.2c0.8,0.1-2.4,0.2-3.3,0.3c5.7-0.2,23.9,0.3,32.1-0.1l0.8,0.1
						c30.5-0.2,44.4-0.3,69.2-0.5c0.5-0.3,10.2-0.3,17.6-0.6c18.3-0.1,38.6,0,60.6-0.2c15.5-0.3,4.5-0.3,11.5-0.5
						c1.1,0.2,23.1,0,11.7,0.3c26.4-0.3,33.7-0.4,67.2-1c-3.6-0.1-7.7-0.1-5.6-0.2c6.1-0.1,13.8-0.1,12.9,0.1l-1.6,0
						c37.5-0.8,86.6-0.4,116.4-1.4l-1.7,0.1l31-0.8c14.2-0.2-8.5,0.3,2,0.3c7.4-0.2,14-0.4,20.1-0.5c0,10.4,0,19.5,0,28.6
						c0,9.4,0,18.8,0.1,29.3c-0.8,21.3,0.1,75.6-0.4,104.3l0.2-1.7c0.2,7.4-0.1,9-0.1,14.5c0.1-0.8,0.2-8.1,0.3-3.4
						c0,11.4,0,22.9,0.1,34.7c-25.7-0.1-51.8-0.1-78-0.2c-26.6-0.1-53.2-0.2-79.5-0.3c-23.6,0-13.4,0.9-43.1,0.5l8.4-0.3
						c-47.6,0.4-97.4,0-144,0.3c2.8-0.1,2.9-0.2,7.4-0.2c-4.9-0.1-14-0.1-21.9-0.1c-3.9,0-7.6,0.1-10.3,0.1c-1.3,0-2.4,0.1-3.2,0.1
						c-0.8,0-1.2,0-1.2,0.1c-7.3,0-1.7-0.2-6.2-0.3c-9.9-0.1-24.8,0.3-30,0.1c-0.9,0,2.8-0.1,4.6-0.1c-6.4,0.1-30,0-23.8,0.2
						c-17.5-0.1-33.5,0.1-47.4,0c-9.1,0.3-30-0.1-32.8,0.3c1.3-0.5-30.7-0.4-41.7-0.2c3.7-0.1-9.6-0.1-5.3-0.3
						c-12.6,0-24.2,0.1-22,0.3c-23.3-0.5-46.8,0.4-59.9-0.3c-37.5,0.2-72.2,0.3-106,0.5c1.2-0.5,37.3,0,35.9-0.5
						c-32,0.2-50.5,0.6-82.2,0.5c-8.2-0.1,4.7-0.2,7.4-0.3c-32,0.2-61.8,0-90.3,0.2c0,0,0.8,0,2-0.1c1.1,0,2.6,0,4.1-0.1
						c-5.6,0-13-0.1-12.4,0.1l5.5-0.1c9,0.3-22.3,0.6-23.3,0.8c9.5-0.6-28.1-0.1-13-0.9c-3.7,0-8.3,0.1-7.5,0.3
						c-5.5,0-7.2-0.1-1.7-0.3c-20.1,0.1-13,0.3-31.2,0.3c0.1-0.1,3.7-0.1,5.6-0.3c-9.2,0.2-18.5,0.4-33.9,0.3
						c0.9-0.1-0.9-0.1,3.7-0.1c-26.4,0-45,0.5-74,0.3c8.5-0.4-9.9-0.1-11.4-0.5l-15.6,0.1l6.3,0.2c-13.6,0-25.7,0.3-37.4,0.1
						l10.1-0.2l-25.6,0.1l14.5,0.1c-13.8,0.2,1.5,0.5-16.7,0.4c3.7,0-13.7,0-20.8-0.2l0,0c-6.8,0.1-13.7,0.2-23.8,0.2
						c-2.6-0.1,2.1-0.4,0.4-0.5c-6.7,0.3-32,0.1-40.4,0.4c2.8-0.1,3-0.3,2-0.3l-5.6,0.3c-6.3-0.1-7.2-0.1-6.2-0.3
						c-19,0,6,0.5-16.5,0.3c1.8,0,0.9-0.1,4.6-0.1c-22.7-0.1-43.8,0.2-64.6,0c-6.1-0.4,18.2-0.1,11.2-0.4c-30,0.1-62.2,0.5-91.3,0.4
						l5.4,0c-4,0.5-21.6-0.3-36.3,0c3.6,0,4.7-0.3,3.7-0.2c-19.9-0.1-40.7,0.1-70.9,0.3l3.7-0.1c-11.7-0.1-30.9-0.1-43.6-0.1
						c-3.8,0.1-11,0.1-6.6,0.3c-39.1-0.8-74.5,0.4-109.2-0.2c4.1,0,9.9-0.1,6.6-0.1l-29.5,0.1c2.3,0.2,3.9,0.1,10.1,0.3
						c-3.7,0.1-12.1,0.2-19.4,0.2c13.3-0.2-0.1-0.4-5.9-0.5c1,0.1-1,0.1-0.5,0.2c-15.4-0.4-2.6,0.5-23.6,0.2l1.1-0.1
						c-7.9,0.1-15.1,0.2-23.6,0.2c-3.5-0.3,8.4-0.1,8.9-0.3c-11.9,0-23.6,0.5-34.4,0.2c5.1,0,12.4-0.1,17.4-0.1
						c-11.8-0.3-13.1-0.2-21.9-0.3l0.9,0l-20.2-0.1l5.1,0.1c-14.9,0.7-30.4,0.1-50.5,0.6c19.6-0.4,3.2-0.3,4.7-0.6
						c-5.1-0.1-13-0.2-10.7-0.3c-9.5,0.2-15.9-0.2-29.3,0.2c-0.6-0.1-10.2,0-8-0.3c-12.4,0.1,2.9,0.2,1.9,0.3
						c-19.1,0.3-44.8-0.4-72.2,0.1c-1.5,0-2.8,0-3.6,0c-0.1-4.8-0.1-8.7-0.2-12.2c-0.1-3.6-0.1-6.8-0.2-10c-0.1-6.4-0.2-12.8-0.3-23
						c0.2-7.4,0.4,6.1,0.4,6.1c0.1-11.9,0.1-20.9,0-32.2c0.1,2.3,0.2-0.1,0.3-3.5c0-9-0.4-6-0.2-18c0.1,2,0.3,4.7,0.4,9
						C0.1,325.6,0,315-0.1,304c0.2-2.9,0.3,6.7,0.4,10.5c-0.1-12.4-0.2-32.1-0.4-35.9l-0.1,7.9c0-4.5,0.2-2.3,0.3,1
						c0.2,10.6-0.1,15.3-0.2,15.9l-0.1-7.8c-0.6,8.1,0.1,31.5,0.1,47.3l-0.4-6.6l0.3,16.2c-0.1,3.4-0.3,5.8-0.4-2
						c-0.2,11.3,0.1,10-0.1,19.8c0,1.1-0.1,0.6-0.1-0.4l0.1,11.1c-0.1-2.2-0.3,1.8-0.2-5c-0.2,19.9,0.3,32,0,39.5l0-1.7
						c0,3,0,5.4,0,7c2.2,0,3.8,0,5-0.1c1.1,0,1.8,0,2.3-0.1c0.9,0,0.7-0.1,0.6-0.1c-0.2-0.1-0.1-0.2,9.2-0.4l13.9,0.8l2.7-0.3
						c2.8,0,8.5,0,7.4,0.2c10.6-0.2-1.8-0.1,4.3-0.3c13.7,0.3,37.7-0.1,40.8,0.4c4.9-0.2-13.1-0.2,1.5-0.3
						c4.2,0.5,16.9-0.1,29.4,0.2c-3.8,0.3-15.7,0.1-3.2,0.4c7.5-0.5,24.3,0.1,34.9,0c0.2-0.2,6-0.2,13.9-0.2c7.9,0,17.9,0,26.8,0
						c-1.1,0.1,33.3,0.2,49.8,0.3l-0.5,0.1c3.2-0.4,20.2-0.3,32.5-0.4c-0.5,0.2-2.7,0.3-9.4,0.4l11.6,0c2.7-0.1,6.4-0.2,13.9-0.2
						l-2.9,0.3c15.5,0,31.2-0.3,51.1-0.1c1.1-0.3-15.8-0.7,5.2-0.9c0.8,0.1,1.6,0.4-3.9,0.4c1.8,0,6.4-0.1,10.1-0.1l-8.4,0.2
						c9.1,0.1,4.7-0.2,12-0.2c-0.1,0.2,5.4,0.1,4.3,0.3c-1.9,0-6.3-0.1-9.1,0c8.2,0,18.1,0.2,21.3,0.3c-0.7-0.1,0-0.3,6-0.3
						c15.5,0,5.3,0.2,14.3,0.3c3.7-0.1,13.6,0,13.9-0.3c4.5,0,5.4,0.1,7.1,0.2c8-0.1,37.4,0,28.4-0.4l-2.1,0c0.4,0,0.8,0,1.3,0
						c-0.1,0,0,0-0.1,0h0.1c26.2-0.3,54.5,0.2,80.6,0l0,0.1c15.5-0.1,34.6-0.1,45.7-0.3c4.6,0,10.9,0.2,8.9,0.3
						c11.9-0.1,13.2-0.2,30.4,0c-11.9,0.2,4.1,0.2-12.2,0.1c15.4,0.1,18.9,0.2,35.5,0c-5.6,0.3,11.6,0.3,19,0.2l-10.8-0.2
						c8.3,0,15.5,0,22.8,0l-4,0.3c31.6,0.4,57-0.7,81,0c8.4-0.2-17.2-0.2-9.7-0.4c14.5,0,29.7,0.5,34.2,0.5
						c19.9,0.2,18.6-0.5,39.4-0.4c-2.7-0.1-5.2-0.4,10.4-0.5c14.5,0,17.9,0.5,8.7,0.6c-3.5,0-5.2,0-5-0.1c-4.7,0-10.9,0.1-5.1,0.2
						l1.9-0.1c7.2,0.1,27.2,0.1,22.5,0.3c11-0.1,4.7-0.2-3.4-0.3c18.7,0.2,29.1,0,48.3,0.1c-3.1-0.1-5.9-0.2-2.8-0.2
						c28.2,0.1,12.4-0.2,31.5-0.3c10.8,0.2-3.9,0.4,15.3,0.3c11.7,0.1,2.5,0.3-2.2,0.4c17.5-0.2,32.7,0.2,42.7,0.2l-9.2,0.1
						c5.5-0.1,10-0.1,14.6-0.1l-5.3-0.2c2.7,0,5.2,0,7,0c1.8,0,2.9,0,2.9,0.1c5.6-0.2-4.3-0.4,6.8-0.6c7.2,0.1,22-0.1,24.5,0.2
						c-22.7-0.1,2.5,0.3-16.7,0.4c3.7,0,8.2,0,13.7,0c0.8,0-0.8,0.1-2.2,0.1c21.7,0.3,10-0.4,32.5-0.3c-2.9,0.2,5.2,0.3,8.9,0.3
						c-9.1,0-4.3-0.3,4-0.4c14.4,0.1,15.7-0.1,23.2-0.1l-8.6-0.1c2.9-0.2,10.1-0.2,20.2-0.2c0.9,0.1-9.1,0.1-5.5,0.2
						c11.2-0.3,25.2,0.3,40.8,0.1c7.2,0.1,0.7,0.3,7,0.4c17.5-0.2,18.9,0.2,37.3,0.1c-5.3-0.2-6.2-0.2,6.7-0.4l-30.2,0.2l19.4-0.3
						c-9.1,0-19.2,0.1-24.7,0.1c9.2-0.2,8.3-0.1,3.9-0.3c12.5,0.4,24.7-0.2,39.1,0l-0.4,0.6c21.6,0.3,38.5-0.3,66.6-0.2l-9-0.1
						c3.8-0.2,17.4,0,26.5-0.1c-0.8,0.2,4.8,0.3,8.7,0.4c-0.5-0.1,20.6,0,23.1-0.4l12.5,0.3c22.7,0.1,25.9-0.6,47.7-0.5
						c-6.6,0.2,3.3,0.4-11.3,0.5c3.6,0,7.1,0,9.7,0c2.6,0,4.2,0,4.3-0.1c4.3,0.1,20.2-0.3,26.9-0.1c3.1-0.1,4.1-0.3,12.3-0.3
						c0.9,0,0,0.1,0,0.1c0,0,0.2,0,0.5,0c0.3,0,0.8,0,1.4,0c1.1,0,2.5,0,3.6-0.1c2.3,0,3.7-0.1,0.1-0.2c22.4,0.6,62.7,0,82.3,0.5
						c15.9,0,35.1-0.1,49.5-0.1c-0.9,0.1,0,0.1-2.8,0.1c19.9,0.2,12.2-0.6,34.9-0.4c11.6,0.3-12,0.2-4.8,0.3
						c3.1,0.6,27.3-0.1,42.6,0.3l-3.7,0c11.7,0.2,28.4-0.2,47.5-0.2c0,0-0.9,0.1-0.1,0.1c13-0.3,37.7-0.4,56-0.5
						c-5.7,0.3-8.3,0.1-4.8,0.4c8.2,0-2.4-0.4,14-0.5c5.3,0.1,17.2,0.3,18.7,0.5l-15.5,0c7.9,0.4,20,0,28.2,0l-1,0.2
						c23.7-0.1,24-0.4,49.5-0.4l-2.6-0.1c13.9-0.4,11.7,0.2,25.5-0.1l4.2,0.4c9.2-0.1,32.2-0.4,48.6-0.5c-9.3,0.3-28.6,0.4-40.5,0.6
						c9.1,0,30.9,0,35.7-0.2c-3.7,0-8.3,0.1-11.9,0.1c11.2-0.3,25.9-0.5,44-0.5c-1,0.2,3.2,0.3,9.9,0.4c6.9,0,16.3,0,25.4,0.1
						c0-5.6,0.1-11.1,0.1-15.9c0-4.5,0.1-8.3,0.2-10.8c-0.3-32.1,0.1-63.6,0.1-101c-0.6,13.3,0-10.9-0.6-8.6c0-8.7,0-12,0-12.8
						l0.4-26.4c0.2-6.3,0.1,8.3,0.3,7.5c0-19.1,0.3-8,0.4-20.6c-0.2,2.6-0.3-6.6-0.2-17.5l-0.3,15.3c0-4.4-0.1-7.9-0.1-10.9
						c0-3.4,0-6.2,0-8.7c-1.5,0-2.9,0-4.3,0c-1,0-2,0-3,0c-2,0-3.9,0-6.1,0c-4.5,0-10,0.1-19.1,0.4l8.5-0.3
						c-13.8,0.4-50.8,0.8-64.3,1.5c-2.4,0-5.7-0.2,0.4-0.3c-32.9,0.4-73.3,1.6-98.9,1.6l2.5-0.2c-6.1,0.1-10.7,0.4-18.4,0.4
						c0.4-0.1,2.5-0.2-0.4-0.2c-3.3,0.1-16.3,0.4-24.5,0.4l7-0.2c-32.1,0.1-49.3,1-76.2,1.3c0-0.1-1.6-0.2-4.1-0.2
						c-2.6-0.1-6.1-0.1-10-0.1c-7.9,0-17.4,0-23.7,0l0.4-0.1c-18.7,0.1-34.6,0.3-50.1,0.5c-15.5,0.2-30.7,0.5-48,0.6
						c-10.7-0.2-29-0.2-48.8-0.2c-19.8,0.1-41.3,0-58.6-0.1c5.3,0.1-0.9,0.3-7,0.4c-8.1-0.1-22.4,0.3-21.1-0.1l2.9,0
						c-6.1-0.4-22.8-0.4-35.8-0.4l-2.1,0.5c-8.5-0.2-18.3-0.3-28.6-0.4c-10.2,0-20.9-0.1-31.1-0.1c-20.4-0.1-38.8-0.2-48.1-0.6
						c-4.1,0-8.7,0-13.3,0c-4.6,0-9.2,0-13.2-0.1l0.4-0.3c-22.7-0.4-34.1-0.6-62.2-1l5.7-0.1c-15.9-0.3-20,0.4-34.7,0.1l-4.4-0.5
						c-6.9-0.2-13.9-0.3-20.8-0.5c-6.9-0.2-13.9-0.4-20.8-0.6c-13.9-0.5-27.7-0.9-41.4-1.2c0.5,0,1.3-0.1,5.7,0
						c-13-0.4-50.4-1.9-45.7-1.1c-0.1-0.1-1.9-0.2-4.8-0.3c-2.9-0.1-7-0.2-11.4-0.3c-9-0.2-19.8-0.5-27.2-0.5l2.3-0.2
						c-12.6,0.1-13,0.2-30.6,0c-4.2-0.1-3.7-0.3,1.9-0.1c-13.9-0.4-10.8,0.1-27.7-0.4l6.3-0.1c-14.3-0.3-13.2-0.2-21.1-0.1
						c-9,0-27.2-0.3-29.3-0.6c-1.9,0.1-9.8,0.3-18.2,0.1c-1.1-0.1,1.9-0.1,3.5-0.1c-12-0.2-20.9-0.2-28.8-0.2c-8,0-15,0.1-23.2-0.1
						c-0.3-0.1-1.4-0.1-2.8-0.2c9.5,0,18.1,0.1,24.1,0.1c6,0,9.5,0.1,8.8,0.1c0-0.3-15.4-0.4-3.1-0.7c-12.3,0.1-33.4,0.5-48.4,0.3
						c-0.7,0-1.4-0.1-2-0.1l1.5,0c-3.5,0-6.5,0-9.5,0c-4.8,0-7.8-0.1-12.4-0.1c-1.8-0.2-17.6-0.2-25.3-0.1c0.6,0.3-9.4,0.3,0,0.5
						c-1.2,0,1.4,0,6.5-0.1c1.2,0,2.5,0,3.3,0c-0.1,0-0.3,0-0.5,0c5,0,11.6,0,19,0c-6.1,0.1-12.4,0.2-20.8,0.1
						c-3.9,0.2-8.3,0.4-10.7,0.5c-10.5-0.4-30.7-0.5-33.5-0.8c-11.7,0.1-25.5,0.2-38.2,0.3c-12.7,0.2-24.3,0.3-31.6,0.7
						c-6.7,0.1-7.6-0.1-10.1-0.2c3.8-0.1,8.4-0.1,10.5-0.2c-13.3,0.2-39.4,0.3-42.6,0.7c-16.8,0,9.4-0.4-13.6-0.2l3.1-0.1
						c-45.3-0.1-73.6,1.6-123.8,1.6c3.5,0,5.2,0,5.9,0.1c-28.6,0.2-58.1,0.7-87.5,1.2c-29.4,0.5-58.7,1.1-86.9,1.3
						c-16.1,0.2-17.8,0.5-27.6,0.8l-3.5-0.2l-16.7,0.7c-23.8,0.7-41.2,0.1-71.2,1.2l3.9,0.1c-10.8,0.2-34.2,0.9-32.4,0.6
						c-1.1,0.1-3.5,0.3-7.8,0.3l-0.3-0.2l-26.5,0.9c-20.6,0.4,3.2-0.7-26.8,0c-11.2,0.3-31.8,1.3-27.6,1.3c4.5-0.1,11.5-0.2,11.8,0
						l-10.2,0.3c-1.8,0.5-9.7,1.2,15.4,0.9l17.4-0.7l5.6,0.1l-14.7,0.4c8.3,0,13.6-0.3,19.5-0.6c1.4,0.1,3.9,0.1,7.3,0.1l17.1-0.8
						c2.1,0.1-7.7,0.5,3.8,0.4c8-0.4-7.7-0.2,5.6-0.7c8.4,0,5.9,0.2,15.7-0.2c1.4,0.1-0.7,0.2-4.6,0.4c8.7-0.3,23.1-0.6,27.6-0.9
						c8.7,0.1,29.5-0.7,28.6-0.2c2.7-0.2,15.4-0.7,23.4-0.9c-14.6,0.8,30-0.6,26.1,0.1c10.8-0.7,39.1-1,58.3-1.6
						c-1.1,0.1-3.2,0.2-4.9,0.2c10.8-0.2,13.9-0.1,20.9-0.1c1.4-0.4,18.2-0.8,27.3-1.2c13.2,0.2-8,0.6-3.9,0.9
						c-0.7-0.3,23-0.7,18.5-0.9c10.1,0.1,8.7,0,13.9,0.2c1.8-0.5,9.4-0.2,17.8-0.7c14.7,0,3.8,0.4,19.9,0
						C371,211,356.7,211.4,356.7,211.4z M739.6,207.9L739.6,207.9c-3.3,0-6.1,0-7.9,0C733.4,207.9,735.6,207.9,739.6,207.9z
						 M771.8,208c-3.9,0-8.8,0-14-0.1c-1.1-0.1,0.1-0.2,3.3-0.2C759.4,207.8,767,207.9,771.8,208z M703.7,205.8c5.1,0,6.8,0,7.5,0.1
						c-2.4,0-5.2,0-8.9,0c-0.1,0-0.5,0-0.6,0C702.2,205.9,702.8,205.8,703.7,205.8z"/>
					<path fill="#886B4B" d="M694.6,206.2c-0.7,0-1.1,0-2.1,0c1,0,2,0,3,0.1c0.6,0,1.3-0.1,1.8-0.1
						C696.4,206.1,695.4,206.1,694.6,206.2z"/>
					<path fill="#886B4B" d="M435.9,420.9l0.7,0c-0.6,0-1.1,0-1.4,0C435.6,420.9,435.6,420.9,435.9,420.9z"/>
					<polygon fill="#886B4B" points="1216.1,217.4 1216,217.3 1213.2,217.4 					"/>
					<path fill="#886B4B" d="M258.7,420c-0.3,0-1-0.1-2.3-0.1C256.5,419.9,257.5,419.9,258.7,420z"/>
					<path fill="#886B4B" d="M182.1,419.9l-10.8-0.1C176,419.8,179.4,419.9,182.1,419.9z"/>
					<path fill="#886B4B" d="M123.3,419.8c-0.7,0-1,0.1-1.2,0.1c0,0,0.1,0,0.1,0L123.3,419.8z"/>
					<path fill="#886B4B" d="M1059.2,419.4c0.8,0,1.6,0,2.3,0C1066.8,419.4,1063.2,419.4,1059.2,419.4z"/>
					<path fill="#886B4B" d="M780.7,420.1c3,0,5.9-0.1,9-0.1C784.7,419.9,780.8,419.9,780.7,420.1z"/>
					<path fill="#886B4B" d="M1370.2,419.1C1370.2,419.1,1370.2,419.1,1370.2,419.1c0.6,0,1.2,0,1.9,0L1370.2,419.1z"/>
					<path fill="#886B4B" d="M802.6,419.9c-5-0.1-9.1,0-13,0C793.7,420,798.5,420,802.6,419.9z"/>
					<path fill="#886B4B" d="M0.4,289.1l0-2.8c0,0,0-0.1,0-0.3L0.4,289.1z"/>
					<path fill="#886B4B" d="M0.3,286l0-3.1C0.3,284.3,0.3,285.5,0.3,286z"/>
					<path fill="#886B4B" d="M0.2,276.2l0.1,6.6C0.3,280.5,0.3,277.7,0.2,276.2z"/>
					<path fill="#886B4B" d="M0.2,367.1l0.1,0.9C0.3,367.5,0.3,367.2,0.2,367.1z"/>
					<path fill="#886B4B" d="M0.3,390.7c0-5.6,0.2-14.2,0.2-22.1L0.3,368C0.5,371.7,0.1,385.4,0.3,390.7z"/>
					<path fill="#886B4B" d="M68.6,421l-19.8-0.1c3.5,0.1,8,0.3-1,0.3C72.8,421.5,42.6,420.9,68.6,421z"/>
					<path fill="#886B4B" d="M130.1,421.1c-10.7,0.1,0.1,0.2-0.4,0.2C136.4,421.3,138.1,421.2,130.1,421.1z"/>
					<path fill="#886B4B" d="M574.8,421.1l-1.1,0.3C581.9,421.4,573.8,421.3,574.8,421.1z"/>
					<polygon fill="#886B4B" points="659.8,419.8 651.8,419.7 648,419.9 					"/>
					<polygon fill="#886B4B" points="710,421.6 706.4,421.7 720.1,421.6 					"/>
					<path fill="#886B4B" d="M1456.7,421.6l-2.5-0.3C1448.7,421.3,1447.5,421.6,1456.7,421.6z"/>
					<path fill="#886B4B" d="M1779.1,421.2c3.5,0.2,12.6,0.3,18.2,0.1C1790.1,421.3,1782.8,421.2,1779.1,421.2z"/>
					<polygon fill="#886B4B" points="1301.6,215.5 1308.1,215.4 1295.8,215.5 					"/>
				</g>
			</g>
		</g>
	</g>
</g>
<g id="rig">
	<path fill="#232323" d="M1920,289.1c0,0-553-31.5-782,0s-249,15-302.9,19.4c-53.9,4.4-211,16.8-327.1,0.5
		c-116.1-16.3-328.8,9.9-388.7,5.3S0,308.4,0,308.4v51c0,0,74.2,13.3,273.5,0c199.3-13.3,374.4-2.5,459.2,0.6
		c84.8,3.1,234.3-17.3,541.4,5.3c307,22.6,645.9-25.3,645.9-25.3V289.1z"/>
	<rect x="950.4" y="16.8" fill="#848484" width="8.7" height="270.7"/>
	<path fill="#848484" d="M950.4,287.4l0,24.2c0,0,1.8,20.4-18.2,20.4H151.9H148v8h786.4c20.2,0,24.8-20.1,24.8-23.6
		s-0.1-29.4-0.1-29.4L950.4,287.4z"/>
	<path fill="#0E2833" d="M958,14V6h-6v8h-12v176h31V14H958z M943,24h25.5L943,52V24z M943,71.2l25.5,29.8H943V71.2z M943,106h25.5
		L943,134.6V106z M943,185v-30.3l25.5,30.3H943z M943.5,149h25l0,28.8L943.5,149z M968.5,143h-25l25-28.8L968.5,143z M943.5,66h25
		l0,28.8L943.5,66z M968.5,60h-25l25-28.8L968.5,60z"/>
	<path fill="#0E2833" d="M1006,218.4l-11-7.4v-19h2v-4h-85v4h3v18.8l-11.2,7.5l11.2,0V218h80v0.4L1006,218.4z M922,205.4
		c0,0.4-0.2,0.6-0.6,0.6h-2.6c-0.4,0-0.8-0.2-0.8-0.6v-2.8c0-0.4,0.5-0.7,0.8-0.7h2.6c0.4,0,0.6,0.3,0.6,0.7V205.4z M935,205.3
		c0,0.4-0.3,0.7-0.7,0.7h-2.7c-0.4,0-0.7-0.3-0.7-0.7v-2.7c0-0.4,0.3-0.7,0.7-0.7h2.7c0.4,0,0.7,0.3,0.7,0.7V205.3z M946.8,206h-2.6
		c-0.4,0-1.2-0.2-1.2-0.5v-2.8c0-0.4,0.8-0.7,1.2-0.7h2.6c0.4,0,0.3,0.3,0.3,0.7v2.8C947,205.8,947.1,206,946.8,206z M978,206
		c0,0.4-0.6,1-0.9,1h-4c-0.4,0-1.1-0.6-1.1-1v-5.6c0-0.4,0.7-0.5,1.1-0.5h4c0.4,0,0.9,0.1,0.9,0.5V206z M987,206.2
		c0,0.4-0.5,0.8-0.9,0.8h-4c-0.4,0-1.1-0.5-1.1-0.8v-5.5c0-0.4,0.8-0.6,1.1-0.6h4c0.4,0,0.9,0.2,0.9,0.6V206.2z"/>
</g>
<path id="cloud" opacity="0.3" fill="#FFFFFF" d="M138.7,26c-2.8,0-5.5,1-7.5,2.7c-0.9-5.5-5.7-9.7-11.5-9.7c-2.2,0-4.3,0.6-6,1.7
	c-1.8-1-3.8-1.7-6-1.7c-1.8,0-3.5,0.4-5.1,1.1c-1.5-1-3.6-1-5.3-1c-5.1,0-10.3,3.1-11.3,7.6v0c-1,1.2-0.3,2.5-0.3,3.9
	c0,1,0.3,2,0.5,3c-0.3-1-0.3-2-0.3-3c0-1.4,0.3-2.7,0.8-3.9c-1.3-0.5-2.6-0.7-4-0.7C76.2,26,71,31.2,71,37.7c0,3.1,1.2,5.9,3.2,8
	c-0.1,0.7-0.2,1.3-0.2,2c0,6.4,5.2,11.7,11.7,11.7c0.6,0,1.2,0,1.7-0.1c2,3.6,5.8,6.1,10.3,6.1c3.4,0,6.4-1.4,8.5-3.7
	c2.1,2.3,5.1,3.7,8.5,3.7c4.1,0,7.7-2.1,9.7-5.3c1.6,0.8,3.4,1.3,5.3,1.3c6.5,0,11.7-5.2,11.7-11.7c0-0.2,0-0.4,0-0.7
	c5.2-1.2,9-5.8,9-11.3C150.3,31.2,145.1,26,138.7,26z"/>
<path id="cloud_9_" opacity="0.3" fill="#FFFFFF" d="M371,45c-2.8,0-5.5,1-7.5,2.7c-0.9-5.5-5.7-9.7-11.5-9.7c-2.2,0-4.3,0.6-6,1.7
	c-1.8-1-3.8-1.7-6-1.7c-1.8,0-3.5,0.4-5.1,1.1c-1.5-1-3.8-1-5.5-1c-5.1,0-10.5,3.1-11.5,7.6v0c-1,1.2-0.2,2.5-0.2,3.9
	c0,1,0.4,2,0.6,3c-0.3-1-0.2-2-0.2-3c0-1.4,0.3-2.7,0.8-3.9c-1.3-0.5-2.6-0.7-4-0.7c-6.4,0-11.6,5.2-11.6,11.7c0,3.1,1.2,5.9,3.2,8
	c-0.1,0.7-0.2,1.3-0.2,2c0,6.4,5.2,11.7,11.7,11.7c0.6,0,1.2,0,1.7-0.1c2,3.6,5.8,6.1,10.3,6.1c3.4,0,6.4-1.4,8.5-3.7
	c2.1,2.3,5.1,3.7,8.5,3.7c4.1,0,7.7-2.1,9.7-5.3c1.6,0.8,3.4,1.3,5.3,1.3c6.5,0,11.7-5.2,11.7-11.7c0-0.2,0-0.4,0-0.7
	c5.2-1.2,9-5.8,9-11.3C382.7,50.2,377.5,45,371,45z"/>
<path id="cloud_5_" opacity="0.4" fill="#FFFFFF" d="M901.7,26.6c-3.6,0-6.9,1.3-9.4,3.4c-1.2-6.9-7.2-12.3-14.5-12.3
	c-2.8,0-5.4,0.8-7.6,2.1c-2.2-1.3-4.8-2.1-7.6-2.1c-2.3,0-4.4,0.5-6.4,1.4c-1.8-1.2-4.3-1.3-6.4-1.3c-6.4,0-13,3.9-14,9.6v0
	c-1,1.5-0.7,3.2-0.7,5c0,1.3,0.2,2.6,0.5,3.8c-0.3-1.2-0.4-2.5-0.4-3.8c0-1.8,0.3-3.4,0.9-5c-1.6-0.6-3.3-0.9-5.1-0.9
	c-8.1,0-14.7,6.6-14.7,14.7c0,3.9,1.5,7.4,4,10.1c-0.1,0.8-0.2,1.7-0.2,2.5c0,8.1,6.6,14.7,14.7,14.7c0.7,0,1.5-0.1,2.2-0.2
	c2.5,4.6,7.3,7.7,12.9,7.7c4.2,0,8-1.8,10.7-4.6c2.7,2.9,6.5,4.6,10.7,4.6c5.1,0,9.7-2.6,12.3-6.6c2,1,4.2,1.6,6.6,1.6
	c8.1,0,14.7-6.6,14.7-14.7c0-0.3,0-0.6,0-0.8c6.5-1.5,11.3-7.3,11.3-14.3C916.4,33.2,909.8,26.6,901.7,26.6z"/>
<path id="cloud_8_" opacity="0.4" fill="#FFFFFF" d="M625,78.6c-3.6,0-6.9,1.3-9.4,3.4c-1.2-6.9-7.2-12.3-14.5-12.3
	c-2.8,0-5.4,0.8-7.6,2.1c-2.2-1.3-4.8-2.1-7.6-2.1c-2.3,0-4.4,0.5-6.4,1.4c-1.8-1.2-4.4-1.3-6.5-1.3c-6.4,0-13.1,3.9-14.1,9.6v0
	c-1,1.5-0.6,3.2-0.6,5c0,1.3,0.3,2.6,0.6,3.8c-0.3-1.2-0.4-2.5-0.4-3.8c0-1.8,0.4-3.4,0.9-5c-1.6-0.6-3.3-0.9-5-0.9
	c-8.1,0-14.7,6.6-14.7,14.7c0,3.9,1.5,7.4,4,10.1c-0.1,0.8-0.2,1.7-0.2,2.5c0,8.1,6.6,14.7,14.7,14.7c0.7,0,1.5-0.1,2.2-0.2
	c2.5,4.6,7.3,7.7,12.9,7.7c4.2,0,8-1.8,10.7-4.6c2.7,2.9,6.5,4.6,10.7,4.6c5.1,0,9.7-2.6,12.3-6.6c2,1,4.2,1.6,6.6,1.6
	c8.1,0,14.7-6.6,14.7-14.7c0-0.3,0-0.6,0-0.8c6.5-1.5,11.3-7.3,11.3-14.3C639.7,85.2,633.1,78.6,625,78.6z"/>
<path id="cloud_6_" opacity="0.4" fill="#FFFFFF" d="M1570.8,26.6c-3.6,0-6.9,1.3-9.4,3.4c-1.2-6.9-7.2-12.3-14.5-12.3
	c-2.8,0-5.4,0.8-7.6,2.1c-2.2-1.3-4.8-2.1-7.6-2.1c-2.3,0-4.4,0.5-6.4,1.4c-1.8-1.2-4.8-1.3-6.9-1.3c-6.4,0-13.5,3.9-14.5,9.6v0
	c-1,1.5-0.2,3.2-0.2,5c0,1.3,0.5,2.6,0.7,3.8c-0.3-1.2-0.3-2.5-0.3-3.8c0-1.8,0.4-3.4,1-5c-1.6-0.6-3.2-0.9-5-0.9
	c-8.1,0-14.7,6.6-14.7,14.7c0,3.9,1.5,7.4,4,10.1c-0.1,0.8-0.2,1.7-0.2,2.5c0,8.1,6.6,14.7,14.7,14.7c0.7,0,1.5-0.1,2.2-0.2
	c2.5,4.6,7.3,7.7,12.9,7.7c4.2,0,8-1.8,10.7-4.6c2.7,2.9,6.5,4.6,10.7,4.6c5.1,0,9.7-2.6,12.3-6.6c2,1,4.2,1.6,6.6,1.6
	c8.1,0,14.7-6.6,14.7-14.7c0-0.3,0-0.6,0-0.8c6.5-1.5,11.3-7.3,11.3-14.3C1585.5,33.2,1578.9,26.6,1570.8,26.6z"/>
<path id="cloud_1_" opacity="0.4" fill="#FFFFFF" d="M1202.9,96.7c-1.1,0-2,0.4-2.8,1c-0.3-2.1-2.1-3.6-4.3-3.6
	c-0.8,0-1.6,0.2-2.2,0.6c-0.7-0.4-1.4-0.6-2.2-0.6c-0.7,0-1.3,0.2-1.9,0.4c-0.5-0.4-1.4-0.4-2.1-0.4c-1.9,0-4.3,1.2-4.3,2.8v0
	c0,0.5-0.1,1-0.1,1.5c0,0.4,0.1,0.8,0.2,1.1c-0.1-0.4-0.1-0.7-0.1-1.1c0-0.5,0.1-1,0.3-1.5c-0.5-0.2-1-0.3-1.5-0.3
	c-2.4,0-4.4,2-4.4,4.4c0,1.2,0.5,2.2,1.2,3c0,0.2-0.1,0.5-0.1,0.8c0,2.4,2,4.4,4.4,4.4c0.2,0,0.4,0,0.7,0c0.7,1.4,2.2,2.3,3.8,2.3
	c1.3,0,2.4-0.5,3.2-1.4c0.8,0.9,1.9,1.4,3.2,1.4c1.5,0,2.9-0.8,3.6-2c0.6,0.3,1.3,0.5,2,0.5c2.4,0,4.4-2,4.4-4.4c0-0.1,0-0.2,0-0.2
	c1.9-0.4,3.4-2.2,3.4-4.3C1207.2,98.6,1205.3,96.7,1202.9,96.7z"/>
<path id="cloud_7_" opacity="0.4" fill="#FFFFFF" d="M1051.4,160c-1.1,0-2,0.4-2.8,1c-0.3-2.1-2.1-3.6-4.3-3.6
	c-0.8,0-1.6,0.2-2.2,0.6c-0.7-0.4-1.4-0.6-2.2-0.6c-0.7,0-1.3,0.2-1.9,0.4c-0.5-0.4-1.2-0.4-1.8-0.4c-1.9,0-4.1,1.2-4.1,2.8v0
	c0,0.5-0.3,1-0.3,1.5c0,0.4,0,0.8,0.1,1.1c-0.1-0.4-0.1-0.7-0.1-1.1c0-0.5,0.1-1,0.3-1.5c-0.5-0.2-1-0.3-1.5-0.3
	c-2.4,0-4.4,2-4.4,4.4c0,1.2,0.4,2.2,1.2,3c0,0.2-0.1,0.5-0.1,0.8c0,2.4,2,4.4,4.4,4.4c0.2,0,0.4,0,0.7,0c0.7,1.4,2.2,2.3,3.8,2.3
	c1.3,0,2.4-0.5,3.2-1.4c0.8,0.9,1.9,1.4,3.2,1.4c1.5,0,2.9-0.8,3.6-2c0.6,0.3,1.3,0.5,2,0.5c2.4,0,4.4-2,4.4-4.4c0-0.1,0-0.2,0-0.2
	c1.9-0.4,3.4-2.2,3.4-4.3C1055.8,161.9,1053.8,160,1051.4,160z"/>
<path id="cloud_2_" opacity="0.4" fill="#FFFFFF" d="M227.5,134.2c-1.7,0-3.2,0.6-4.4,1.6c-0.5-3.3-3.4-5.7-6.8-5.7
	c-1.3,0-2.5,0.4-3.5,1c-1-0.6-2.2-1-3.5-1c-1.1,0-2.1,0.2-3,0.7c-0.9-0.6-2.4-0.6-3.3-0.6c-3,0-5.9,1.8-6.9,4.5v0c0,0.7,0,1.5,0,2.3
	c0,0.6,0.3,1.2,0.4,1.8c-0.2-0.6-0.1-1.2-0.1-1.8c0-0.8,0.2-1.6,0.5-2.3c-0.7-0.3-1.5-0.4-2.3-0.4c-3.8,0-6.9,3.1-6.9,6.9
	c0,1.8,0.7,3.5,1.9,4.7c-0.1,0.4-0.1,0.8-0.1,1.2c0,3.8,3.1,6.9,6.9,6.9c0.3,0,0.7,0,1-0.1c1.2,2.1,3.4,3.6,6.1,3.6
	c2,0,3.8-0.8,5-2.2c1.3,1.3,3,2.2,5,2.2c2.4,0,4.5-1.2,5.7-3.1c0.9,0.5,2,0.7,3.1,0.7c3.8,0,6.9-3.1,6.9-6.9c0-0.1,0-0.3,0-0.4
	c3-0.7,5.3-3.4,5.3-6.7C234.4,137.3,231.3,134.2,227.5,134.2z"/>
<path id="cloud_3_" opacity="0.4" fill="#FFFFFF" d="M1781.6,106.9c-1.7,0-3.2,0.6-4.4,1.6c-0.5-3.3-3.4-5.7-6.8-5.7
	c-1.3,0-2.5,0.4-3.5,1c-1-0.6-2.2-1-3.5-1c-1.1,0-2.1,0.2-3,0.7c-0.9-0.6-2.9-0.6-3.9-0.6c-3,0-6.5,1.8-7.5,4.5v0
	c0,0.7,0.6,1.5,0.6,2.3c0,0.6,0.6,1.2,0.7,1.8c-0.2-0.6,0-1.2,0-1.8c0-0.8,0.3-1.6,0.5-2.3c-0.7-0.3-1.5-0.4-2.3-0.4
	c-3.8,0-6.8,3.1-6.8,6.9c0,1.8,0.7,3.5,1.9,4.7c-0.1,0.4-0.1,0.8-0.1,1.2c0,3.8,3.1,6.9,6.9,6.9c0.3,0,0.7,0,1-0.1
	c1.2,2.1,3.4,3.6,6.1,3.6c2,0,3.8-0.8,5-2.2c1.3,1.3,3,2.2,5,2.2c2.4,0,4.5-1.2,5.7-3.1c0.9,0.5,2,0.7,3.1,0.7
	c3.8,0,6.9-3.1,6.9-6.9c0-0.1,0-0.3,0-0.4c3-0.7,5.3-3.4,5.3-6.7C1788.5,109.9,1785.4,106.9,1781.6,106.9z"/>
<path id="cloud_4_" opacity="0.4" fill="#FFFFFF" d="M1444.5,132.5c-1.5,0-2.9,0.5-3.9,1.4c-0.5-2.9-3-5.1-6-5.1
	c-1.1,0-2.2,0.3-3.1,0.9c-0.9-0.6-2-0.9-3.1-0.9c-0.9,0-1.9,0.2-2.7,0.6c-0.8-0.5-2.3-0.5-3.2-0.5c-2.7,0-5.4,1.6-6.4,4v0
	c0,0.6,0.3,1.3,0.3,2.1c0,0.5,0.4,1.1,0.5,1.6c-0.1-0.5,0-1,0-1.6c0-0.7,0.2-1.4,0.4-2.1c-0.7-0.2-1.3-0.4-2.1-0.4
	c-3.4,0-6.1,2.7-6.1,6.1c0,1.6,0.6,3.1,1.7,4.2c-0.1,0.3-0.1,0.7-0.1,1.1c0,3.4,2.7,6.1,6.1,6.1c0.3,0,0.6,0,0.9-0.1
	c1,1.9,3.1,3.2,5.4,3.2c1.8,0,3.3-0.7,4.5-1.9c1.1,1.2,2.7,1.9,4.5,1.9c2.1,0,4-1.1,5.1-2.8c0.8,0.4,1.8,0.7,2.8,0.7
	c3.4,0,6.1-2.7,6.1-6.1c0-0.1,0-0.2,0-0.3c2.7-0.6,4.7-3.1,4.7-6C1450.6,135.3,1447.9,132.5,1444.5,132.5z"/>
<path fill="#FFFFFF" d="M105.2,38.3c0,0.1-0.1,0.2-0.1,0.3c0,0,0,0-0.1,0C105.1,38.4,105.2,38.4,105.2,38.3z"/>
<path opacity="0.4" fill="#FFFFFF" d="M105.2,38.3c0,0.1-0.1,0.2-0.1,0.3c0,0,0,0-0.1,0C105.1,38.4,105.2,38.4,105.2,38.3z"/>
<path fill="#FFFFFF" d="M108,38c0,0-0.1,0-0.1,0c0,0-0.1,0-0.1,0C107.8,38,107.9,38,108,38C107.9,38,108,38,108,38
	C108,38,108,38,108,38z"/>
<path fill="#FFFFFF" d="M108,38L108,38C108,38,108,38,108,38L108,38c-0.1,0-0.1,0-0.1,0c0,0-0.1,0-0.1,0C107.8,38,107.9,38,108,38
	C107.9,38,108,38,108,38C108,38,108,38,108,38z"/>
</svg>
