<?xml version="1.0" encoding="utf-8"?>
<!-- Generator: Adobe Illustrator 18.0.0, SVG Export Plug-In . SVG Version: 6.00 Build 0)  -->
<!DOCTYPE svg PUBLIC "-//W3C//DTD SVG 1.1//EN" "http://www.w3.org/Graphics/SVG/1.1/DTD/svg11.dtd">
<svg version="1.1" id="Layer_1" xmlns="http://www.w3.org/2000/svg" xmlns:xlink="http://www.w3.org/1999/xlink" x="0px" y="0px"
	 width="118.3px" height="78.8px" viewBox="0 0 118.3 78.8" enable-background="new 0 0 118.3 78.8" xml:space="preserve">
<g id="Gas">
	<path id="outer-puff" fill="none" stroke="#929292" stroke-miterlimit="10" d="M21.6,74.3c0,0-26.6-4.2-10.2-20.1
		c0,0-24.1-11.2-0.7-22.6c0,0-13.4-19.6,10.9-14.4c0,0,12.9-32.6,32.6-6.5c0,0,30.3-22.4,31.8,6c0,0,33.6-7.7,17.4,19.6
		c0,0,27.9,6.2,6,20.6c0,0,15.7,22.6-8.2,21.4"/>
	<path id="inner-puff" fill="none" stroke="#C1C1C1" stroke-width="0.75" stroke-miterlimit="10" d="M31.5,67.8
		c0,0-19.5-3.1-7.5-14.8c0,0-17.7-8.2-0.5-16.6c0,0-9.8-14.4,8-10.6c0,0,9.5-23.9,23.9-4.7c0,0,22.3-16.4,23.3,4.4
		c0,0,24.6-5.7,12.8,14.4c0,0,20.4,4.6,4.4,15.1c0,0,11.5,16.6-6,15.7"/>
	<path id="flurry5" fill="none" stroke="#A5A5A5" stroke-width="0.75" stroke-miterlimit="10" d="M68.7,25.1c0,0,10.1-3.4,5,4.8
		c0,0,11.5-5.2,5.6,5.3"/>
	<path id="flurry4" fill="none" stroke="#A5A5A5" stroke-width="0.75" stroke-miterlimit="10" d="M37.8,35.3c0,0-1.1-10.6,5.8-3.9
		c0,0-2.6-12.3,6.4-4.3"/>
	<path id="flurry3" fill="none" stroke="#A5A5A5" stroke-width="0.75" stroke-miterlimit="10" d="M77.2,55.9c0,0,10.1-3.5,5.1,4.8
		c0,0,11.4-5.3,5.6,5.3"/>
	<path id="flurry2" fill="none" stroke="#A5A5A5" stroke-width="0.75" stroke-miterlimit="10" d="M37.7,59.9c0,0-10.2,3.3-5-4.9
		c0,0-11.5,5.1-5.5-5.4"/>
	<path id="flurry1" fill="none" stroke="#A5A5A5" stroke-width="0.75" stroke-miterlimit="10" d="M52.7,46.9c0,0,5.4-9.2,6.9,0.4
		c0,0,5.3-11.4,7.7,0.4"/>
</g>
</svg>
