<?xml version="1.0" encoding="utf-8"?>
<!-- Generator: Adobe Illustrator 18.0.0, SVG Export Plug-In . SVG Version: 6.00 Build 0)  -->
<!DOCTYPE svg PUBLIC "-//W3C//DTD SVG 1.1//EN" "http://www.w3.org/Graphics/SVG/1.1/DTD/svg11.dtd">
<svg version="1.1" id="Layer_1" xmlns="http://www.w3.org/2000/svg" xmlns:xlink="http://www.w3.org/1999/xlink" x="0px" y="0px"
	 width="71.5px" height="91.9px" viewBox="0 0 71.5 91.9" enable-background="new 0 0 71.5 91.9" xml:space="preserve">
<g id="Urban_Ag">
	<g id="flower_1_">
		<path fill="#FFFFFF" stroke="#A5A5A5" stroke-miterlimit="10" d="M58.7,39.4L58.7,39.4L58.7,39.4c0.5-2.1-0.8-4.6-2.8-5.4l0,0v0
			C55.5,36.2,56.7,38.6,58.7,39.4z"/>
		<path fill="#FFFFFF" stroke="#A5A5A5" stroke-miterlimit="10" d="M49.1,50.5c0,0,17.1-14.4,11.3-27.4l1.6,0.7
			c5.8,13-11.3,27.4-11.3,27.4L49.1,50.5z"/>
		
			<ellipse transform="matrix(-1.722410e-002 -0.9999 0.9999 -1.722410e-002 39.7651 87.475)" fill="#FFFFFF" stroke="#A5A5A5" stroke-miterlimit="10" cx="62.9" cy="24.2" rx="2.5" ry="8.1"/>
		
			<ellipse transform="matrix(-0.925 -0.3799 0.3799 -0.925 111.8405 70.461)" fill="#FFFFFF" stroke="#A5A5A5" stroke-miterlimit="10" cx="62.9" cy="24.2" rx="2.5" ry="8.1"/>
		
			<ellipse transform="matrix(0.8886 -0.4587 0.4587 0.8886 -4.0931 31.5385)" fill="#FFFFFF" stroke="#A5A5A5" stroke-miterlimit="10" cx="62.9" cy="24.2" rx="2.5" ry="8.1"/>
		<circle fill="#FFFFFF" stroke="#A5A5A5" stroke-miterlimit="10" cx="62.9" cy="24.2" r="2.7"/>
		<path fill="#FFFFFF" stroke="#A5A5A5" stroke-miterlimit="10" d="M58.8,42.8L58.8,42.8L58.8,42.8c1.2-1.9,3.7-2.7,5.7-1.9h0l0,0
			C63.3,42.7,60.8,43.6,58.8,42.8z"/>
	</g>
	<g id="flower">
		<path fill="#FFFFFF" stroke="#A5A5A5" stroke-miterlimit="10" d="M34.7,38.4L34.7,38.4L34.7,38.4c0.6-3.4,3.9-6.2,7.3-6.2h0v0
			C41.4,35.6,38.1,38.4,34.7,38.4z"/>
		<path fill="#FFFFFF" stroke="#A5A5A5" stroke-miterlimit="10" d="M42.2,60.6c0,0-16.5-31.5,0-47.2h-2.7c-16.5,15.7,0,47.2,0,47.2
			H42.2z"/>
		
			<ellipse transform="matrix(0.3958 -0.9183 0.9183 0.3958 10.506 42.8294)" fill="#FFFFFF" stroke="#A5A5A5" stroke-miterlimit="10" cx="37.8" cy="13.4" rx="3.9" ry="12.9"/>
		<ellipse fill="#FFFFFF" stroke="#A5A5A5" stroke-miterlimit="10" cx="37.8" cy="13.4" rx="3.9" ry="12.9"/>
		
			<ellipse transform="matrix(-0.6477 -0.7619 0.7619 -0.6477 52.0506 50.9308)" fill="#FFFFFF" stroke="#A5A5A5" stroke-miterlimit="10" cx="37.8" cy="13.4" rx="3.9" ry="12.9"/>
		<circle fill="#FFFFFF" stroke="#A5A5A5" stroke-miterlimit="10" cx="37.8" cy="13.4" r="4.4"/>
		<path fill="#FFFFFF" stroke="#A5A5A5" stroke-miterlimit="10" d="M32.6,43.3L32.6,43.3L32.6,43.3C32,39.8,28.7,37,25.3,37h0l0,0
			C25.9,40.5,29.2,43.3,32.6,43.3z"/>
	</g>
	<g id="flower_2_">
		<path fill="#FFFFFF" stroke="#A5A5A5" stroke-miterlimit="10" d="M12.7,39.4L12.7,39.4L12.7,39.4c-0.5-2.1,0.8-4.6,2.8-5.4l0,0
			l0,0C16,36.2,14.7,38.6,12.7,39.4z"/>
		<path fill="#FFFFFF" stroke="#A5A5A5" stroke-miterlimit="10" d="M22.4,50.5c0,0-17.1-14.4-11.3-27.4l-1.6,0.7
			c-5.8,13,11.3,27.4,11.3,27.4L22.4,50.5z"/>
		
			<ellipse transform="matrix(1.722413e-002 -0.9999 0.9999 1.722413e-002 -15.7293 32.3864)" fill="#FFFFFF" stroke="#A5A5A5" stroke-miterlimit="10" cx="8.6" cy="24.2" rx="2.5" ry="8.1"/>
		
			<ellipse transform="matrix(0.925 -0.3799 0.3799 0.925 -8.5462 5.085)" fill="#FFFFFF" stroke="#A5A5A5" stroke-miterlimit="10" cx="8.6" cy="24.2" rx="2.5" ry="8.1"/>
		
			<ellipse transform="matrix(-0.8886 -0.4587 0.4587 -0.8886 5.1614 49.6427)" fill="#FFFFFF" stroke="#A5A5A5" stroke-miterlimit="10" cx="8.6" cy="24.2" rx="2.5" ry="8.1"/>
		<circle fill="#FFFFFF" stroke="#A5A5A5" stroke-miterlimit="10" cx="8.6" cy="24.2" r="2.7"/>
		<path fill="#FFFFFF" stroke="#A5A5A5" stroke-miterlimit="10" d="M12.7,42.8L12.7,42.8L12.7,42.8C11.5,40.9,9,40.1,7,40.9h0l0,0
			C8.1,42.7,10.7,43.6,12.7,42.8z"/>
	</g>
	<polygon id="flower_pot" fill="#FFFFFF" stroke="#A5A5A5" stroke-miterlimit="10" points="59.9,50.9 58.5,58 57.4,58 50.9,91.4 
		20.6,91.4 14,58 13,58 11.6,50.9 	"/>
</g>
</svg>
