<?xml version="1.0" encoding="utf-8"?>
<!-- Generator: Adobe Illustrator 18.0.0, SVG Export Plug-In . SVG Version: 6.00 Build 0)  -->
<!DOCTYPE svg PUBLIC "-//W3C//DTD SVG 1.1//EN" "http://www.w3.org/Graphics/SVG/1.1/DTD/svg11.dtd">
<svg version="1.1" id="Layer_1" xmlns="http://www.w3.org/2000/svg" xmlns:xlink="http://www.w3.org/1999/xlink" x="0px" y="0px"
	 width="71.5px" height="91.9px" viewBox="0 0 71.5 91.9" enable-background="new 0 0 71.5 91.9" xml:space="preserve">
<g id="Urban_Ag">
	<g id="flower-right" class="flower">
		<path id="steam" class="stem"  fill="#FFFFFF" stroke="#A5A5A5" stroke-miterlimit="10" d="M49.1,50.5c0,0,17.1-14.4,11.3-27.4l1.6,0.7
			c5.8,13-11.3,27.4-11.3,27.4L49.1,50.5z"/>
		<path id="petal2_3_" class="leaf" fill="#FFFFFF" stroke="#A5A5A5" stroke-miterlimit="10" d="M58.7,39.4L58.7,39.4L58.7,39.4
			c0.5-2.1-0.8-4.6-2.8-5.4l0,0l0,0C55.5,36.2,56.7,38.6,58.7,39.4z"/>
		<path id="leaf1_2_" class="leaf" fill="#FFFFFF" stroke="#A5A5A5" stroke-miterlimit="10" d="M58.8,42.8L58.8,42.8L58.8,42.8
			c1.2-1.9,3.7-2.7,5.7-1.9l0,0l0,0C63.3,42.7,60.8,43.6,58.8,42.8z"/>
		
			<ellipse id="petal3_2_" class="petal" transform="matrix(-0.9999 1.722337e-002 -1.722337e-002 -0.9999 126.1654 47.2424)" fill="#FFFFFF" stroke="#A5A5A5" stroke-miterlimit="10" cx="62.9" cy="24.2" rx="8.1" ry="2.5"/>
		
			<ellipse id="petal2_2_" class="petal" transform="matrix(-0.3799 0.925 -0.925 -0.3799 109.0968 -24.7726)" fill="#FFFFFF" stroke="#A5A5A5" stroke-miterlimit="10" cx="62.9" cy="24.2" rx="8.1" ry="2.5"/>
		
			<ellipse id="petal1_2_" class="petal" transform="matrix(-0.4587 -0.8886 0.8886 -0.4587 70.2572 91.1793)" fill="#FFFFFF" stroke="#A5A5A5" stroke-miterlimit="10" cx="62.9" cy="24.2" rx="8.1" ry="2.5"/>
		<circle id="center_2_" class="center" fill="#FFFFFF" stroke="#A5A5A5" stroke-miterlimit="10" cx="62.9" cy="24.2" r="2.7"/>
	</g>
	<g id="flower-center" class="flower">
		<path id="stem_1_" class="stem" fill="#FFFFFF" stroke="#A5A5A5" stroke-miterlimit="10" d="M42.2,60.6c0,0-16.5-31.5,0-47.2h-2.7
			c-16.5,15.7,0,47.2,0,47.2H42.2z"/>
		<path id="leaf2_1_" class="leaf" fill="#FFFFFF" stroke="#A5A5A5" stroke-miterlimit="10" d="M34.7,38.4L34.7,38.4L34.7,38.4
			c0.6-3.4,3.9-6.2,7.3-6.2l0,0l0,0C41.4,35.6,38.1,38.4,34.7,38.4z"/>
		<path id="leaf1_1_" class="leaf" fill="#FFFFFF" stroke="#A5A5A5" stroke-miterlimit="10" d="M32.6,43.3L32.6,43.3L32.6,43.3
			C32,39.8,28.7,37,25.3,37l0,0l0,0C25.9,40.5,29.2,43.3,32.6,43.3z"/>
		
			<ellipse id="petal3_1_" class="petal" transform="matrix(-0.9183 -0.3958 0.3958 -0.9183 67.1477 40.6975)" fill="#FFFFFF" stroke="#A5A5A5" stroke-miterlimit="10" cx="37.8" cy="13.4" rx="12.9" ry="3.9"/>
		<ellipse id="petal2_1_" class="petal" fill="#FFFFFF" stroke="#A5A5A5" stroke-miterlimit="10" cx="37.8" cy="13.4" rx="3.9" ry="12.9"/>
		
			<ellipse id="petal1_1_" class="petal" transform="matrix(-0.7619 0.6477 -0.6477 -0.7619 75.2719 -0.7674)" fill="#FFFFFF" stroke="#A5A5A5" stroke-miterlimit="10" cx="37.8" cy="13.5" rx="12.9" ry="3.9"/>
		<circle id="center_1_" class="center" fill="#FFFFFF" stroke="#A5A5A5" stroke-miterlimit="10" cx="37.8" cy="13.4" r="4.4"/>
	</g>
	<g id="flower-left" class="flower">
		<path id="stem" class="stem" fill="#FFFFFF" stroke="#A5A5A5" stroke-miterlimit="10" d="M22.4,50.5c0,0-17.1-14.4-11.3-27.4l-1.6,0.7
			c-5.8,13,11.3,27.4,11.3,27.4L22.4,50.5z"/>
		<path id="leaf2" class="leaf" fill="#FFFFFF" stroke="#A5A5A5" stroke-miterlimit="10" d="M12.7,39.4L12.7,39.4L12.7,39.4
			c-0.5-2.1,0.8-4.6,2.8-5.4l0,0l0,0C16,36.2,14.7,38.6,12.7,39.4z"/>
		<path id="leaf1" class="leaf" fill="#FFFFFF" stroke="#A5A5A5" stroke-miterlimit="10" d="M12.7,42.8L12.7,42.8L12.7,42.8
			C11.5,40.9,9,40.1,7,40.9l0,0l0,0C8.1,42.7,10.7,43.6,12.7,42.8z"/>
		
			<ellipse id="petal3" class="petal" transform="matrix(-0.9999 -1.722337e-002 1.722337e-002 -0.9999 16.8146 48.553)" fill="#FFFFFF" stroke="#A5A5A5" stroke-miterlimit="10" cx="8.6" cy="24.2" rx="8.1" ry="2.5"/>
		
			<ellipse id="petal2" class="petal" transform="matrix(-0.3799 -0.925 0.925 -0.3799 -10.5178 41.3552)" fill="#FFFFFF" stroke="#A5A5A5" stroke-miterlimit="10" cx="8.6" cy="24.2" rx="8.1" ry="2.5"/>
		
			<ellipse id="petal1" class="petal" transform="matrix(-0.4587 0.8886 -0.8886 -0.4587 34.0724 27.6317)" fill="#FFFFFF" stroke="#A5A5A5" stroke-miterlimit="10" cx="8.6" cy="24.2" rx="8.1" ry="2.5"/>
		<circle id="center" class="center" fill="#FFFFFF" stroke="#A5A5A5" stroke-miterlimit="10" cx="8.6" cy="24.2" r="2.7"/>
	</g>
	<polygon id="pot" fill="#FFFFFF" stroke="#A5A5A5" stroke-miterlimit="10" points="59.9,50.9 58.5,58 57.4,58 50.9,91.4 
		20.6,91.4 14,58 13,58 11.6,50.9 	"/>
</g>
</svg>
