<?xml version="1.0" encoding="utf-8"?>
<!-- Generator: Adobe Illustrator 18.0.0, SVG Export Plug-In . SVG Version: 6.00 Build 0)  -->
<!DOCTYPE svg PUBLIC "-//W3C//DTD SVG 1.1//EN" "http://www.w3.org/Graphics/SVG/1.1/DTD/svg11.dtd">
<svg version="1.1" id="Layer_1" xmlns="http://www.w3.org/2000/svg" xmlns:xlink="http://www.w3.org/1999/xlink" x="0px" y="0px"
	 width="1140px" height="410px" viewBox="0 0 1140 410" enable-background="new 0 0 1140 410" xml:space="preserve">
<rect id="blue-hero-base" fill="#23A1D1" width="1140" height="410"/>
<path fill="#500000" d="M439,410c0,0,222.6-159.4,385.3-203.2s213.7-44.6,255.7-81.1s60-40.9,60-40.9V410H439z"/>
<g id="Wind_Turbine_2_">
	<polygon fill="#FFFFFF" points="578.3,178.7 572.1,178.7 568,410 582.4,410 	"/>
	<g id="Blades_2_">
		<path id="bade_1_4_" fill="#FFFFFF" d="M573.6,68.6c4.4-0.1,1.6,110,1.6,110l-12.5-7.7L573.6,68.6z"/>
		<path id="bade_1_2_" fill="#FFFFFF" d="M680.4,232.2c-2.1,3.5-105.2-53.7-105.2-53.7l13.6-6L680.4,232.2z"/>
		<path id="bade_1_1_" fill="#FFFFFF" d="M471.6,235c-2.2-3.4,103.6-56.3,103.6-56.3l-1.1,13.7L471.6,235z"/>
	</g>
	<path fill="#FCFCFC" d="M582.4,178.6c0.1,3.6-3.1,6.6-7.1,6.6c-4,0-7.2-2.8-7.3-6.5c-0.1-3.6,3.1-6.6,7.1-6.6
		C579.1,172.1,582.3,174.9,582.4,178.6z"/>
</g>
<g id="Wind_Turbine_3_">
	<polygon fill="#FFFFFF" points="756,289.7 747.2,289.7 749.7,148.1 753.5,148.1 	"/>
	<g id="Blades_4_">
		<path id="bade_1_12_" fill="#FFFFFF" d="M750.6,80.7c2.7,0,1,67.4,1,67.4l-7.7-4.7L750.6,80.7z"/>
		<path id="bade_1_11_" fill="#FFFFFF" d="M816,180.9c-1.3,2.1-64.4-32.9-64.4-32.9l8.3-3.7L816,180.9z"/>
		<path id="bade_1_10_" fill="#FFFFFF" d="M688.2,182.5c-1.4-2.1,63.4-34.5,63.4-34.5l-0.7,8.4L688.2,182.5z"/>
	</g>
	<path fill="#FCFCFC" d="M756,148c0,2.2-1.9,4-4.3,4.1c-2.4,0-4.4-1.7-4.4-3.9s1.9-4,4.3-4.1C753.9,144,755.9,145.8,756,148z"/>
</g>
<g id="Wind_Turbine_4_">
	<polygon fill="#FFFFFF" points="875.2,219.3 869.5,219.3 871.1,128.2 873.6,128.2 	"/>
	<g id="Blades_5_">
		<path id="bade_1_15_" fill="#FFFFFF" d="M871.7,84.8c1.7,0,0.6,43.3,0.6,43.3l-4.9-3L871.7,84.8z"/>
		<path id="bade_1_14_" fill="#FFFFFF" d="M913.8,149.3c-0.8,1.4-41.5-21.2-41.5-21.2l5.3-2.4L913.8,149.3z"/>
		<path id="bade_1_13_" fill="#FFFFFF" d="M831.5,150.3c-0.9-1.4,40.8-22.2,40.8-22.2l-0.4,5.4L831.5,150.3z"/>
	</g>
	<path fill="#FCFCFC" d="M875.2,128.1c0,1.4-1.2,2.6-2.8,2.6c-1.6,0-2.8-1.1-2.9-2.5c0-1.4,1.2-2.6,2.8-2.6S875.1,126.7,875.2,128.1
		z"/>
</g>
<g id="Wind_Turbine_5_">
	<polygon fill="#FFFFFF" points="980,177.2 976.8,177.2 977.7,125.8 979.1,125.8 	"/>
	<g id="Blades_6_">
		<path id="bade_1_18_" fill="#FFFFFF" d="M978.1,101.3c1,0,0.4,24.5,0.4,24.5l-2.8-1.7L978.1,101.3z"/>
		<path id="bade_1_17_" fill="#FFFFFF" d="M1001.8,137.7c-0.5,0.8-23.4-11.9-23.4-11.9l3-1.3L1001.8,137.7z"/>
		<path id="bade_1_16_" fill="#FFFFFF" d="M955.4,138.3c-0.5-0.8,23-12.5,23-12.5l-0.2,3.1L955.4,138.3z"/>
	</g>
	<path fill="#FCFCFC" d="M980,125.7c0,0.8-0.7,1.5-1.6,1.5c-0.9,0-1.6-0.6-1.6-1.4c0-0.8,0.7-1.5,1.6-1.5
		C979.3,124.3,980,124.9,980,125.7z"/>
</g>
<g id="Blades_3_">
	<path id="bade_1_9_" fill="#FFFFFF" d="M16.2,223.2c6.9-8.4,210.7,173.5,210.7,173.5l-34.6,11.3L16.2,223.2z"/>
	<path id="bade_1_8_" fill="#FFFFFF" d="M497,283.8c3.2,9.7-270.5,112.8-270.5,112.8l10.4-35.3L497,283.8z"/>
	<path fill="#FFFFFF" d="M226.8,396.8c0,0-1.2,4.8-3.2,13.2h16.5L226.8,396.8z"/>
	<path fill="#FCFCFC" d="M239.3,407.1c6.3-7.6,5.7-18.3-1.2-24c-6.9-5.7-17.6-4.2-23.9,3.4c-6.1,7.4-5.7,17.7,0.7,23.5h21.4
		C237.4,409.2,238.4,408.2,239.3,407.1z"/>
</g>
<g id="_x31_st_wind" opacity="0.5">
	<path fill="none" stroke="#FFFFFF" stroke-width="3" stroke-miterlimit="10" d="M94.9,36.4c-7.1-0.9-4.6-5-4.6-5s3.8-7.8,11.2-3.3
		s2.1,12.2-0.7,15c-2.8,2.8-14.9,2.5-14.9,2.5h-18H54"/>
	<path fill="none" stroke="#FFFFFF" stroke-width="3" stroke-miterlimit="10" d="M94.9,65c-7.1,0.9-4.6,4.7-4.6,4.7
		s3.8,7.6,11.2,3.1s2.1-11.6-0.7-14.4c-2.8-2.8-14.9-1.9-14.9-1.9h-18H54"/>
	<path fill="none" stroke="#FFFFFF" stroke-width="3" stroke-miterlimit="10" d="M130.3,60.4c-11.2,0.9-7.4,4.9-7.4,4.9
		s6,7.7,17.6,3.2c11.6-4.5,3.2-11.9-1.2-14.7s-23.5-2.2-23.5-2.2H87.4H66"/>
	<path fill="none" stroke="#FFFFFF" stroke-width="3" stroke-miterlimit="10" d="M164.2,38.3c-11.2-0.9-7.5-5-7.5-5
		s5.9-7.8,17.5-3.3c11.6,4.5,3.2,12.2-1.2,15s-23.5,2.5-23.5,2.5H121h-21"/>
</g>
<g id="_x32_nd_wind" opacity="0.5">
	<path fill="none" stroke="#FFFFFF" stroke-width="3" stroke-miterlimit="10" d="M390.6,256.3c-6.7-0.8-4.4-4.5-4.4-4.5
		s3.6-7.2,10.5-3c7,4.2,2,11.1-0.7,13.8c-2.7,2.7-14.1,2-14.1,2h-17h-13"/>
	<path fill="none" stroke="#FFFFFF" stroke-width="3" stroke-miterlimit="10" d="M390.6,280.7c-6.7,0.8-4.4,4.5-4.4,4.5
		s3.6,7.2,10.5,3c7-4.2,2-11.1-0.7-13.8c-2.7-2.7-14.1-2-14.1-2h-17h-13"/>
	<path fill="none" stroke="#FFFFFF" stroke-width="3" stroke-miterlimit="10" d="M423.9,276.7c-10.5,0.8-6.9,4.5-6.9,4.5
		s5.7,7.2,16.6,3s3.1-11.1-1.1-13.8c-4.2-2.7-22.2-2-22.2-2h-26.8H363"/>
	<path fill="none" stroke="#FFFFFF" stroke-width="3" stroke-miterlimit="10" d="M452.9,256.3c-10.5-0.8-6.9-4.5-6.9-4.5
		s5.7-7.2,16.6-3s3.1,11.1-1.1,13.8s-22.2,2-22.2,2h-26.8H392"/>
</g>
<g id="_x33_rd_wind" opacity="0.5">
	<path opacity="0.6" fill="none" stroke="#FFFFFF" stroke-width="2" stroke-miterlimit="10" d="M623.8,140.5c-4.1-0.5-2.7-3-2.7-3
		s2.2-4.6,6.5-2c4.3,2.6,1.2,7.3-0.4,8.9c-1.6,1.6-8.7,1.6-8.7,1.6H608h-8"/>
	<path opacity="0.6" fill="none" stroke="#FFFFFF" stroke-width="2" stroke-miterlimit="10" d="M623.8,156.6
		c-4.1,0.5-2.7,2.6-2.7,2.6s2.2,4.3,6.5,1.7s1.2-6.4-0.4-8.1c-1.6-1.6-8.7-0.8-8.7-0.8H608h-8"/>
	<path opacity="0.6" fill="none" stroke="#FFFFFF" stroke-width="2" stroke-miterlimit="10" d="M644.5,153.9
		c-6.5,0.5-4.3,2.7-4.3,2.7s3.5,4.4,10.3,1.8c6.8-2.6,1.9-6.7-0.7-8.3c-2.6-1.6-13.7-1-13.7-1h-16.6H607"/>
	<path opacity="0.6" fill="none" stroke="#FFFFFF" stroke-width="2" stroke-miterlimit="10" d="M666.5,140.5c-6.5-0.5-4.4-3-4.4-3
		s3.5-4.6,10.2-2c6.8,2.6,1.9,7.3-0.7,8.9c-2.6,1.6-13.7,1.6-13.7,1.6h-16.6H629"/>
</g>
<g id="_x34_th_wind" opacity="0.5">
	<path fill="none" stroke="#FFFFFF" stroke-miterlimit="10" d="M796.8,61.7c-4.1-0.5-2.7-3.1-2.7-3.1s2.2-4.6,6.5-2
		c4.3,2.6,1.2,7.5-0.4,9.1c-1.6,1.6-8.7,1.8-8.7,1.8H781h-8"/>
	<path fill="none" stroke="#FFFFFF" stroke-miterlimit="10" d="M796.8,76.8c-4.1,0.5-2.7,2.4-2.7,2.4s2.2,4.3,6.5,1.7
		s1.2-6.2-0.4-7.9c-1.6-1.6-8.7-0.6-8.7-0.6H781h-8"/>
	<path fill="none" stroke="#FFFFFF" stroke-miterlimit="10" d="M817.5,74.1c-6.5,0.5-4.3,2.6-4.3,2.6s3.5,4.3,10.3,1.7
		c6.8-2.6,1.9-6.5-0.7-8.1c-2.6-1.6-13.7-0.8-13.7-0.8h-16.6H780"/>
	<path fill="none" stroke="#FFFFFF" stroke-miterlimit="10" d="M838.5,61.7c-6.5-0.5-4.4-3.2-4.4-3.2s3.5-4.6,10.2-2
		c6.8,2.6,1.9,7.5-0.7,9.1c-2.6,1.6-13.7,1.8-13.7,1.8h-16.6H801"/>
</g>
</svg>
