<?xml version="1.0" encoding="utf-8"?>
<!-- Generator: Adobe Illustrator 18.0.0, SVG Export Plug-In . SVG Version: 6.00 Build 0)  -->
<!DOCTYPE svg PUBLIC "-//W3C//DTD SVG 1.1//EN" "http://www.w3.org/Graphics/SVG/1.1/DTD/svg11.dtd">
<svg version="1.1" id="Layer_1" xmlns="http://www.w3.org/2000/svg" xmlns:xlink="http://www.w3.org/1999/xlink" x="0px" y="0px"
	 viewBox="0 0 1920 420" enable-background="new 0 0 1920 420" xml:space="preserve">
<linearGradient id="blue-hero-base_1_" gradientUnits="userSpaceOnUse" x1="960" y1="-4.310095e-008" x2="960" y2="420">
	<stop  offset="0" style="stop-color:#23A1D1"/>
	<stop  offset="1" style="stop-color:#41BCE2"/>
</linearGradient>
<rect id="blue-hero-base" fill="url(#blue-hero-base_1_)" width="1920" height="420"/>
<linearGradient id="SVGID_1_" gradientUnits="userSpaceOnUse" x1="0" y1="337.5355" x2="622" y2="337.5355">
	<stop  offset="0" style="stop-color:#ECC300"/>
	<stop  offset="1" style="stop-color:#D3AA00"/>
</linearGradient>
<path fill="url(#SVGID_1_)" d="M622,420c0,0-313.1-101.7-622-164.9V420H622z"/>
<linearGradient id="SVGID_2_" gradientUnits="userSpaceOnUse" x1="1147.076" y1="94.8113" x2="1147.076" y2="420">
	<stop  offset="0" style="stop-color:#56A835"/>
	<stop  offset="1" style="stop-color:#4E922D"/>
</linearGradient>
<path fill="url(#SVGID_2_)" d="M374.2,420c0,0,490.9-159.4,849.7-203.2s471.2-44.6,563.8-81.1S1920,94.8,1920,94.8V420H374.2z"/>
<g id="Wind_Turbine_2_">
	<polygon fill="#FFFFFF" points="1102.2,365.1 1087.9,365.1 1091.9,133.8 1098.2,133.8 	"/>
	<g id="Blades_2_">
		<path id="bade_1_4_" fill="#FFFFFF" d="M1093.5,23.7c4.4-0.1,1.6,110,1.6,110l-12.5-7.7L1093.5,23.7z"/>
		<path id="bade_1_2_" fill="#FFFFFF" d="M1200.3,187.3c-2.1,3.5-105.2-53.7-105.2-53.7l13.6-6L1200.3,187.3z"/>
		<path id="bade_1_1_" fill="#FFFFFF" d="M991.5,190c-2.2-3.4,103.6-56.3,103.6-56.3l-1.1,13.7L991.5,190z"/>
	</g>
	<path fill="#FCFCFC" d="M1102.3,133.6c0.1,3.6-3.1,6.6-7.1,6.6c-4,0-7.2-2.8-7.3-6.5c-0.1-3.6,3.1-6.6,7.1-6.6
		C1098.9,127.1,1102.2,130,1102.3,133.6z"/>
</g>
<g id="Wind_Turbine_1_">
	<polygon fill="#FFFFFF" points="679.8,201.5 669,201.5 665.2,420 683.6,420 	"/>
	<g id="Blades_1_">
		<path id="bade_1_6_" fill="#FFFFFF" d="M671.7,10.6c7.6-0.1,2.8,190.8,2.8,190.8L652.9,188L671.7,10.6z"/>
		<path id="bade_1_5_" fill="#FFFFFF" d="M856.9,294.2c-3.7,6.1-182.4-93.1-182.4-93.1l23.5-10.4L856.9,294.2z"/>
		<path id="bade_1_3_" fill="#FFFFFF" d="M494.8,298.9c-3.9-6,179.6-97.6,179.6-97.6l-1.8,23.8L494.8,298.9z"/>
	</g>
	<path fill="#FCFCFC" d="M686.8,201.2c0.1,6.3-5.4,11.4-12.3,11.5c-6.9,0.1-12.5-4.9-12.6-11.2c-0.1-6.3,5.4-11.4,12.3-11.5
		C681.1,189.9,686.8,194.9,686.8,201.2z"/>
</g>
<g id="Wind_Turbine_3_">
	<polygon fill="#FFFFFF" points="1371.1,247.8 1362.4,247.8 1364.8,106.2 1368.7,106.2 	"/>
	<g id="Blades_4_">
		<path id="bade_1_12_" fill="#FFFFFF" d="M1365.8,38.8c2.7,0,1,67.4,1,67.4l-7.7-4.7L1365.8,38.8z"/>
		<path id="bade_1_11_" fill="#FFFFFF" d="M1431.2,138.9c-1.3,2.1-64.4-32.9-64.4-32.9l8.3-3.7L1431.2,138.9z"/>
		<path id="bade_1_10_" fill="#FFFFFF" d="M1303.3,140.6c-1.4-2.1,63.4-34.5,63.4-34.5l-0.7,8.4L1303.3,140.6z"/>
	</g>
	<path fill="#FCFCFC" d="M1371.1,106.1c0,2.2-1.9,4-4.3,4.1c-2.4,0-4.4-1.7-4.4-3.9c0-2.2,1.9-4,4.3-4.1
		C1369.1,102.1,1371.1,103.9,1371.1,106.1z"/>
</g>
<g id="Wind_Turbine_4_">
	<polygon fill="#FFFFFF" points="1606.4,190.6 1600.7,190.6 1602.3,99.5 1604.8,99.5 	"/>
	<g id="Blades_5_">
		<path id="bade_1_15_" fill="#FFFFFF" d="M1602.9,56.1c1.7,0,0.6,43.3,0.6,43.3l-4.9-3L1602.9,56.1z"/>
		<path id="bade_1_14_" fill="#FFFFFF" d="M1645,120.6c-0.8,1.4-41.5-21.2-41.5-21.2l5.3-2.4L1645,120.6z"/>
		<path id="bade_1_13_" fill="#FFFFFF" d="M1562.8,121.6c-0.9-1.4,40.8-22.2,40.8-22.2l-0.4,5.4L1562.8,121.6z"/>
	</g>
	<path fill="#FCFCFC" d="M1606.4,99.4c0,1.4-1.2,2.6-2.8,2.6c-1.6,0-2.8-1.1-2.9-2.5c0-1.4,1.2-2.6,2.8-2.6
		C1605.1,96.9,1606.4,98,1606.4,99.4z"/>
</g>
<g id="Wind_Turbine_5_">
	<polygon fill="#FFFFFF" points="1786.4,158.6 1783.3,158.6 1784.1,107.2 1785.5,107.2 	"/>
	<g id="Blades_6_">
		<path id="bade_1_18_" fill="#FFFFFF" d="M1784.5,82.7c1,0,0.4,24.5,0.4,24.5l-2.8-1.7L1784.5,82.7z"/>
		<path id="bade_1_17_" fill="#FFFFFF" d="M1808.3,119.1c-0.5,0.8-23.4-11.9-23.4-11.9l3-1.3L1808.3,119.1z"/>
		<path id="bade_1_16_" fill="#FFFFFF" d="M1761.8,119.7c-0.5-0.8,23-12.5,23-12.5l-0.2,3.1L1761.8,119.7z"/>
	</g>
	<path fill="#FCFCFC" d="M1786.4,107.1c0,0.8-0.7,1.5-1.6,1.5c-0.9,0-1.6-0.6-1.6-1.4s0.7-1.5,1.6-1.5
		C1785.7,105.7,1786.4,106.3,1786.4,107.1z"/>
</g>
<g id="_x31_st_wind" opacity="0.5">
	<path fill="none" stroke="#FFFFFF" stroke-width="3" stroke-miterlimit="10" d="M257.9,77.4c-7.1-0.9-4.6-5-4.6-5s3.8-7.8,11.2-3.3
		s2.1,12.2-0.7,15c-2.8,2.8-14.9,2.5-14.9,2.5h-18H217"/>
	<path fill="none" stroke="#FFFFFF" stroke-width="3" stroke-miterlimit="10" d="M257.9,106c-7.1,0.9-4.6,4.7-4.6,4.7
		s3.8,7.6,11.2,3.1s2.1-11.6-0.7-14.4c-2.8-2.8-14.9-1.9-14.9-1.9h-18H217"/>
	<path fill="none" stroke="#FFFFFF" stroke-width="3" stroke-miterlimit="10" d="M293.3,101.4c-11.2,0.9-7.4,4.9-7.4,4.9
		s6,7.7,17.6,3.2c11.6-4.5,3.2-11.9-1.2-14.7c-4.4-2.8-23.5-2.2-23.5-2.2h-28.4H229"/>
	<path fill="none" stroke="#FFFFFF" stroke-width="3" stroke-miterlimit="10" d="M327.2,79.3c-11.2-0.9-7.5-5-7.5-5
		s5.9-7.8,17.5-3.3c11.6,4.5,3.2,12.2-1.2,15c-4.4,2.8-23.5,2.5-23.5,2.5H284h-21"/>
</g>
<g id="_x32_nd_wind" opacity="0.5">
	<path fill="none" stroke="#FFFFFF" stroke-width="3" stroke-miterlimit="10" d="M775.6,70.3c-6.7-0.8-4.4-4.5-4.4-4.5
		s3.6-7.2,10.5-3c7,4.2,2,11.1-0.7,13.8c-2.7,2.7-14.1,2-14.1,2h-17h-13"/>
	<path fill="none" stroke="#FFFFFF" stroke-width="3" stroke-miterlimit="10" d="M775.6,94.7c-6.7,0.8-4.4,4.5-4.4,4.5
		s3.6,7.2,10.5,3c7-4.2,2-11.1-0.7-13.8c-2.7-2.7-14.1-2-14.1-2h-17h-13"/>
	<path fill="none" stroke="#FFFFFF" stroke-width="3" stroke-miterlimit="10" d="M808.9,90.7c-10.5,0.8-6.9,4.5-6.9,4.5
		s5.7,7.2,16.6,3c11-4.2,3.1-11.1-1.1-13.8s-22.2-2-22.2-2h-26.8H748"/>
	<path fill="none" stroke="#FFFFFF" stroke-width="3" stroke-miterlimit="10" d="M837.9,70.3c-10.5-0.8-6.9-4.5-6.9-4.5
		s5.7-7.2,16.6-3c11,4.2,3.1,11.1-1.1,13.8s-22.2,2-22.2,2h-26.8H777"/>
</g>
<g id="_x33_rd_wind" opacity="0.5">
	<path opacity="0.6" fill="none" stroke="#FFFFFF" stroke-width="2" stroke-miterlimit="10" d="M1519.2,50.1c-3-0.4-2.1-2.1-2.1-2.1
		s1.6-3.3,4.7-1.4c3.1,1.9,0.9,5.2-0.3,6.4s-6.4,1.1-6.4,1.1h-7.6h-5.4"/>
	<path opacity="0.6" fill="none" stroke="#FFFFFF" stroke-width="2" stroke-miterlimit="10" d="M1519.2,62.2c-3,0.4-2.1,1.8-2.1,1.8
		s1.6,3.1,4.7,1.2c3.1-1.9,0.9-4.5-0.3-5.7s-6.4-0.4-6.4-0.4h-7.6h-5.4"/>
	<path opacity="0.6" fill="none" stroke="#FFFFFF" stroke-width="2" stroke-miterlimit="10" d="M1534.2,59.8
		c-4.7,0.4-3.2,2.1-3.2,2.1s2.5,3.3,7.4,1.4c4.9-1.9,1.4-5.1-0.5-6.3s-10-0.9-10-0.9h-12.1h-8.8"/>
	<path opacity="0.6" fill="none" stroke="#FFFFFF" stroke-width="2" stroke-miterlimit="10" d="M1550.2,50.1
		c-4.7-0.4-3.2-2.1-3.2-2.1s2.5-3.3,7.4-1.4c4.9,1.9,1.4,5.2-0.5,6.4c-1.9,1.2-10,1.1-10,1.1h-12.1h-8.7"/>
</g>
<g id="_x34_th_wind" opacity="0.5">
	<path fill="none" stroke="#FFFFFF" stroke-miterlimit="10" d="M1237.8,137.7c-4.1-0.5-2.7-3.1-2.7-3.1s2.2-4.6,6.5-2
		c4.3,2.6,1.2,7.5-0.4,9.1c-1.6,1.6-8.7,1.8-8.7,1.8H1222h-8"/>
	<path fill="none" stroke="#FFFFFF" stroke-miterlimit="10" d="M1237.8,152.8c-4.1,0.5-2.7,2.4-2.7,2.4s2.2,4.3,6.5,1.7
		s1.2-6.2-0.4-7.9c-1.6-1.6-8.7-0.6-8.7-0.6H1222h-8"/>
	<path fill="none" stroke="#FFFFFF" stroke-miterlimit="10" d="M1258.5,150.1c-6.5,0.5-4.3,2.6-4.3,2.6s3.5,4.3,10.3,1.7
		c6.8-2.6,1.9-6.5-0.7-8.1c-2.6-1.6-13.7-0.8-13.7-0.8h-16.6H1221"/>
	<path fill="none" stroke="#FFFFFF" stroke-miterlimit="10" d="M1279.5,137.7c-6.5-0.5-4.4-3.2-4.4-3.2s3.5-4.6,10.2-2
		c6.8,2.6,1.9,7.5-0.7,9.1s-13.7,1.8-13.7,1.8h-16.6H1242"/>
</g>
</svg>
