<?xml version="1.0" encoding="utf-8"?>
<!-- Generator: Adobe Illustrator 18.0.0, SVG Export Plug-In . SVG Version: 6.00 Build 0)  -->
<!DOCTYPE svg PUBLIC "-//W3C//DTD SVG 1.1//EN" "http://www.w3.org/Graphics/SVG/1.1/DTD/svg11.dtd">
<svg version="1.1" id="Layer_1" xmlns="http://www.w3.org/2000/svg" xmlns:xlink="http://www.w3.org/1999/xlink" x="0px" y="0px"
	 width="108.8px" height="110px" viewBox="0 0 108.8 110" enable-background="new 0 0 108.8 110" xml:space="preserve">
<g id="World_Cities">
	<path id="burj" fill="#FFFFFF" stroke="#929292" stroke-miterlimit="10" d="M54.7,107.1L54.7,107.1c0.2,0,0.2,0,0.3,0
		c0.2,0,0.4,0,0.7,0c0.5,0,0.9,0,1.4,0c0.1,0,0.2,0,0.2,0v-1h0.8v-1.3h1v-6h0.8l0,0v-5.2v-5h0.8v-6.5v-6.5v-1.5h0.4v-0.3h0.6v-3.5
		v-6.7V58h0.5v-0.3H63V51v-7.5v-6.7V36h0.3v-0.6V28l0,0h0.3v-0.3h0.2v-0.2h0.3v-5.3v-2.4h0.3v-3.3v-5.1h0.5V7.1V0.5h0.3v7.3V14h0.3
		v0.3h0.3v7.6H66v0.3v0.3h0.3v10h0.3v0.3h0.2v0.7v4.3h0.4v0.5h0.2v0.4h0.3V41v10.2h0.2v0.3H68v0.3h0.3v11v5.8h0.5v0.3H69v5.7v9.1
		h0.8v0.2h0.3v8.9v3l0,0H71v4.9v4.2h1v1.3h1.3v0.8h2.1v2.6H61.8h-7.1c0-0.7,0-1.5,0-2.2C54.6,107.2,54.6,107.1,54.7,107.1z"/>
	<path id="taipei" fill="#FFFFFF" stroke="#929292" stroke-miterlimit="10" d="M90.8,109.5h17.5c-1.1-8.6-2.2-17.1-3.3-25.7
		c0.7-0.2,0.8-1.1,1-1.9c0.3-1.2,0.5-2.3,0.8-3.5c-0.4,0-0.7,0-1.1,0c-0.4-1-0.4-2.1,0.2-3c0.1-1.5,0.6-3,1.4-4.2
		c-0.6,0.1-1.1,0.1-1.7,0.2c0.6-2.1,0.8-4.2,1.5-6.3c-0.6,0-1.2,0-1.8-0.1c0.1-0.9,0.2-1.9,0.5-2.8c0.4-1.2,0.8-2.4,1.3-3.6
		c-0.6,0-1.1,0-1.7,0c0.2-1.2,0.2-2.4,0.5-3.6c0.2-0.9,0.5-1.9,1.1-2.6c-0.6-0.1-1.2-0.2-1.8-0.3c-0.1-1.2,0.4-2.7,0.9-3.9
		c0.3-0.8,0.7-1.7,1-2.5c-0.5,0-1-0.1-1.5-0.1c-0.3-0.9-0.1-2.2,0.7-2.7c-0.1-1.3,0.2-2.5,0.7-3.7c-0.5,0-1,0-1.5,0
		c0.1-1.2,0.2-2.5,0.3-3.7c0.3-1.1,0.6-2.1,1-3.2c-0.3,0-0.7,0-1,0c-0.1-0.5-0.3-0.9-0.4-1.5c-0.6,0-1.1,0-1.7,0
		c-0.7-0.5-0.9-1.2-1.1-2c-0.4-1.2-0.7-2.4-1.1-3.6c-0.3-0.9,0.4-2,0.6-2.9c0.1-0.6,0.4-1.3,1-1.3c-0.1-0.4-0.2-0.8-0.3-1.2
		c-0.6,0-1.1,0-1.7,0.1c0-1.2-0.1-2.5-0.1-3.7c-0.4,0-0.8,0-1.1,0c0-2.5,0-5.1,0-7.6c-0.4,0-0.8,0-1.3,0V17h-0.9v2.9
		c0,0.1,0.1,0.2,0.1,0.3h-2v1.6h0.8c0.2,0,0.3,4.5,0.4,4.9c0.1,1,0.1,2-0.5,2.8c-0.6,1-3.2,1.3-3.2,2.2c-0.6,0-1.1,0-1.7,0
		c0.5,2.4,1.3,5,1.4,7.5c-0.6,0-1.1,0-1.7,0c0.5,1.8,1.9,4.2,1.5,6.1c-0.4,0-0.8,0.1-1.1,0.1c0,0.4,0.1,0.8,0.1,1.1
		c0.5,0.2,0.4,0.5,0.5,1c0.3,1.6,0.7,3.2,0.6,4.8c-0.2-0.4-0.8-0.2-1,0.1c-0.2,0.4-0.1,0.8,0,1.2c0.4,1.6,1,3.2,1.1,4.9
		c-1.6-0.7-1.6,0.5-1.6,1.7c1.2,1.1,1.8,2.7,1.6,4.2c-0.6,0-1.1,0-1.7,0c0.5,2.1,0.9,4.2,1.4,6.3c0.1,0.4,0,0.5,0.1,0.9
		c-0.4,0-0.9,0-1.3,0c0.6,1.3,1,2.7,1.2,4.1c0.1,0.4,0.4,1.6,0.1,2s-0.8,0.2-1.2,0.5c-0.3,0.2-0.5,0.7-0.4,1.1
		c0.7,0.2,1,1.1,1.1,1.9c0.2,1.1,0,1.8,1.1,2.3C92.9,92.5,92.6,101,90.8,109.5z"/>
	<path id="eiffel" fill="#FFFFFF" stroke="#929292" stroke-miterlimit="10" d="M42.6,103.2c-1.4-2.5-2.9-5-4.4-7.6
		c-1.1-1.9-2.5-3.8-3-6c-0.1-0.5-0.1-1.1-0.2-1.6c-0.1-0.6-0.3-0.8-0.5-1.3c-0.4-1-0.8-2-1.2-3c-2.3-5.1-4-10.8-5.1-16.3
		c1.1-0.4,1.2-1.2,0.9-2.1c-0.1-0.2-0.6,0-0.7-0.2c-0.2-0.4-0.2-0.9-0.3-1.3c-0.2-0.9-0.3-1.9-0.5-2.8c-0.6-3.8-1.1-7.6-1.5-11.4
		c-0.5-5.1-0.8-10.3-1.1-15.4c-0.1-1.3-0.1-2.6-0.2-3.9c-0.1-1.1-0.5-2.2-0.4-3.3c0-1.1,0.4-2.1,0.5-3.2c0-0.9-0.1-1.9-0.7-2.7
		c-0.7-0.8-2-1.3-2.8-0.3c-1,1.5-0.5,4.1-0.2,5.7c0.4,2.2,0.2,4.4,0.1,6.7c-0.2,3.6-0.4,7.3-0.7,10.9c-0.5,7.2-1.1,14.3-1.7,21.4
		c-0.6,0-1.2,0-1.8-0.1c0,0.6,0,1.1,0,1.7c0.3,0,0.7,0,1,0c-0.7,0-1.6,7.3-1.7,8.3c-0.4,3.1-1.4,6.1-2.7,8.8c-0.8,1.7-2.7,2-3.1,3.7
		c-0.2,1,0,2.1-0.3,3.2c-0.4,1.2-1,2.3-1.6,3.4c-2.8,5-5.5,10-8.3,15c0.4-0.6,5.9-0.2,8.2-0.2c0.4,0,0.7,0,0.9,0
		c-1.5-1.4,1.7-7.4,2.7-9c1.8-2.8,4.3-4.9,7.5-5.7c4-1,8.3,0,11.5,2.4c3.6,2.7,4.9,8,6.8,12c2.5,0,5,0,7.5,0
		C45.9,109,42.8,103.6,42.6,103.2z M23.8,67c0.2,0,0.3,0,0.5,0.1c0.1,0.1,0.2,0.3,0.2,0.5c0.1,0.8,0.2,1.7,0.3,2.5
		c-0.7,0-1.5,0.1-2.3,0.1c-0.2,0-0.4,0-0.5-0.1s-0.1-0.2-0.1-0.3c0-1,0-2-0.1-2.9C22.5,66.9,23.1,67,23.8,67z M27.7,86.6
		c-3.1,0-6.2,0-9.3,0.1c1-5,2.1-10,3.2-15c1.1,0,3.1-0.7,3.3,0.8c0.3,1.6,0.5,3.2,0.8,4.8c0.3,1.6,0.7,3.2,1.1,4.8
		c0.1,0.4,1.1,4.5,1.3,4.5C27.9,86.6,27.8,86.6,27.7,86.6z"/>
</g>
</svg>
