<?xml version="1.0" encoding="utf-8"?>
<!-- Generator: Adobe Illustrator 17.1.0, SVG Export Plug-In . SVG Version: 6.00 Build 0)  -->
<!DOCTYPE svg PUBLIC "-//W3C//DTD SVG 1.1//EN" "http://www.w3.org/Graphics/SVG/1.1/DTD/svg11.dtd">
<svg version="1.1" id="Layer_1" xmlns="http://www.w3.org/2000/svg" xmlns:xlink="http://www.w3.org/1999/xlink" x="0px" y="0px"
	 viewBox="0 0 36 40.9" enable-background="new 0 0 36 40.9" xml:space="preserve">
<g id="Android_1_">
	<path fill="#FF9969" d="M5,25.4c0,1.4-0.6,2.5-2,2.5H2.9c-1.4,0-2.9-1.1-2.9-2.5V15.2c0-1.4,1.5-2.4,2.9-2.4H3c1.4,0,2,1,2,2.4
		V25.4z"/>
	<path fill="#FF9969" d="M10,38.4c0,1.4,2,2.5,3.4,2.5h0.1c1.4,0,2.5-1.1,2.5-2.5v-5.5h-6V38.4z"/>
	<path fill="#FF9969" d="M19,38.4c0,1.4,1.9,2.5,3.3,2.5h0.1c1.4,0,2.6-1.1,2.6-2.5v-5.5h-6V38.4z"/>
	<path fill="#FF9969" d="M36,25.4c0,1.4-1.6,2.5-3,2.5H33c-1.4,0-3-1.1-3-2.5V15.2c0-1.4,1.6-2.4,3-2.4H33c1.4,0,3,1,3,2.4V25.4z"/>
	<path fill="#FF9969" d="M29,31.1c0,0.9-0.7,1.7-1.7,1.7H8.7c-1,0-1.7-0.8-1.7-1.7v-16c0-0.9,0.7-2.3,1.7-2.3h18.7
		c1,0,1.7,1.3,1.7,2.3V31.1z"/>
	<rect x="7" y="12.9" fill="#FF9969" width="22" height="2"/>
	<path fill="#FF9969" d="M18,1.8c-5.8,0-10.6,5.1-11.1,9.1h22.3C28.5,6.9,23.8,1.8,18,1.8z"/>
	<ellipse fill="#FFFFFF" cx="13.2" cy="7" rx="1.2" ry="1.2"/>
	<ellipse fill="#FFFFFF" cx="22.7" cy="7" rx="1.2" ry="1.2"/>
	<path fill="#FF9969" d="M11.3,0.1C11.2,0,11,0,10.8,0.1c-0.2,0.1-0.2,0.3-0.2,0.4l2,3c0.2-0.1,0.5-0.2,0.7-0.3L11.3,0.1z"/>
	<path fill="#FF9969" d="M25.3,0.5c0.1-0.1,0-0.3-0.2-0.4C25,0,24.8,0,24.7,0.1l-2.1,3.1c0.2,0.1,0.5,0.2,0.7,0.3L25.3,0.5z"/>
</g>
</svg>
