<?xml version="1.0" encoding="utf-8"?>
<!-- Generator: Adobe Illustrator 17.1.0, SVG Export Plug-In . SVG Version: 6.00 Build 0)  -->
<!DOCTYPE svg PUBLIC "-//W3C//DTD SVG 1.1//EN" "http://www.w3.org/Graphics/SVG/1.1/DTD/svg11.dtd">
<svg version="1.1" id="Layer_1" xmlns="http://www.w3.org/2000/svg" xmlns:xlink="http://www.w3.org/1999/xlink" x="0px" y="0px"
	 viewBox="0 0 92.7 84.7" enable-background="new 0 0 92.7 84.7" xml:space="preserve">
<g id="Paw">
	<path fill="#FF9969" d="M29.8,10.8c1.3-2.1,3.1-3.8,4.8-5.6c1.7-1.7,3.2-3.5,5.4-4.6c1.9-1,4.2-0.7,5.8,0.7C46.6,2,47.2,3,47.8,4
		c0.7,1.1,1.4,2.3,2.1,3.4c1,1.6,2,3.2,2.7,4.9c1.4,3.5,1.5,7.4,0.4,11c-2.3,7.3-10,12.5-17.5,9.7C26.6,29.5,25.4,18.2,29.8,10.8z"
		/>
	<path fill="#FF9969" d="M88.4,64.9c-3,3.1-7.8,5-12,3.5c-1.3-0.4-2.5-1.1-3.5-2c-2.4-2-3.9-5-4.5-8.1c-0.5-2.9-0.6-6.8,0.8-9.4
		c1.4-2.7,3.1-4.8,5.3-6.9c1.2-1.1,2.4-2,3.5-3.2c0.8-0.9,1.6-1.8,2.6-2.4c2-1.3,4.9-1.2,6.5,0.7c0.9,1.1,1.4,2.4,1.9,3.8
		c1.4,4.1,3.3,8.1,3.6,12.5C92.9,57.6,91.4,61.9,88.4,64.9z"/>
	<path fill="#FF9969" d="M68.3,69.6c0.2,2.9-0.1,5.3-1.5,7.8c-1.9,3.4-5.1,6.3-9,7c-3.1,0.6-6.4-0.1-9-2c-0.8-0.7-1.6-1.3-2.3-2.2
		c-0.6-0.9-1.3-1.6-2.2-2.3c-2.1-1.5-4.9-2-7.5-2.2c-2.9-0.2-5.8,0.1-8.7,0.4c-1.4,0.1-2.8,0.6-4.2,0.8c-1.5,0.2-3.1,0.2-4.6-0.2
		c-4.7-1-8.3-6.3-8.7-10.9c-0.2-2.9,0.6-5.9,2.2-8.3c2.3-3.5,5.2-6.7,8.2-9.6c1-1,2.1-2,3.2-3c1.8-1.6,3.8-3.1,5.9-4.3
		c2.8-1.6,5.8-2.8,8.9-3.4c5.6-1.2,11.6-0.6,16,3.3c3.4,3,5.4,7.2,7.3,11.1c1.9,4,3.3,8,4.6,12.2C67.5,65.9,68.1,67.6,68.3,69.6z"/>
	<path fill="#FF9969" d="M9.2,47.2C0.3,45.4-1.7,34.7,1.3,27.4c0.4-1,1-2.1,1.6-3c0.7-1.1,1.5-1.7,2.5-2.5c1.6-1.2,3.2-2.5,4.7-3.8
		c1.5-1.3,3-2.9,5.1-3c1.1-0.1,2.3,0,3.3,0.6c1.3,0.7,2,2.2,2.6,3.5c0.7,1.6,1.8,2.8,2.7,4.2c1,1.5,1.8,3.3,2.1,5.1
		c1,5.6-1.2,12-5.5,15.8C17.4,46.8,13.1,48.1,9.2,47.2z"/>
	<path fill="#FF9969" d="M77.5,34.3c-1.9,2.9-5.6,6.4-9.2,6.8c-3.8,0.4-7.9-1-10.2-4.1c-1.9-2.5-3-5.3-3.2-8.5
		c-0.2-3.3,0.5-7.1,2.7-9.7c2.1-2.5,4.5-4.5,6.7-6.9c1.3-1.4,2.6-2.8,4.4-3.2c3.9-1,6,3,7.4,5.9c1.2,2.5,2.6,4.6,3.3,7.3
		C80.5,26.4,80,30.6,77.5,34.3z"/>
</g>
</svg>
