<?xml version="1.0" encoding="utf-8"?>
<!-- Generator: Adobe Illustrator 17.1.0, SVG Export Plug-In . SVG Version: 6.00 Build 0)  -->
<!DOCTYPE svg PUBLIC "-//W3C//DTD SVG 1.1//EN" "http://www.w3.org/Graphics/SVG/1.1/DTD/svg11.dtd">
<svg version="1.1" id="Cat_Path" xmlns="http://www.w3.org/2000/svg" xmlns:xlink="http://www.w3.org/1999/xlink" x="0px" y="0px"
	 viewBox="0 0 525 472.1" enable-background="new 0 0 525 472.1" xml:space="preserve">
<path fill="#EE352A" d="M21.6,214.6c3.4-4.2,4.8-9.2,7.6-13.5c5.6-8.7,18.2-14.7,27.9-16.8c1.2-0.3,1.3-1.7,1.7-2.9
	c0.9-2.7-0.7-5.5-1.4-8.3c-1.1-4.3-0.1-9.2,2.7-12.6c1.5-1.9,5.2,0,5.5,2.4c-0.5-1.8-0.2-5.1,1.6-5.4c1.8-0.3,3.6,0.6,4.9,2
	s2.1,3,3,4.6c5.1,9.5,12.4,17.8,21.2,24c4.2,3,8.5,4.3,13,6.4c5.5,2.6,10.5,8.3,15.2,12.2c7.8,6.4,15.8,13,25.3,16.2
	c8.3,2.8,15.9,0.8,24.1-1.1c7.5-1.7,15.3-2.5,22.9-4.3c17.8-4.1,35.7-9.4,53.7-12.5c17.8-3.1,35.7-3.2,53.6-4.9
	c18.6-1.7,37.4-0.4,55.6,3.9c8.9,2.1,24.4,7.2,32.6,0.8c5.1-4,8.2-12.2,10-18.2c2.6-8.5,5.5-16.9,8.9-25.2
	c7.6-18.4,19.2-35.1,25.6-53.9c4.5-13.4,6.7-27.4,8.2-41.3c0.7-7,1.4-14,1.8-21c0.3-5.7-0.6-9.2,3-14C464.3,12.3,488.5,0.7,511.8,0
	c3.7-0.1,7.9,0.2,10.6,2.8c2.4,2.3,3.1,6.1,2.3,9.3c-0.8,3.3-2.9,6.1-5.4,8.4c-6,5.6-13.9,8.5-21.3,12.3c-7.3,3.7-14.6,9-17.1,16.8
	c-3.2,10-0.9,20.9-1.5,31.2c-0.7,12.2-3.2,24.2-6.9,35.9c-5.7,18.3-14,35.6-22.3,52.9c-4.6,9.7-9.3,19.3-13.9,29
	c-4.3,9-7.6,16.4-7.4,26.9c0.2,10.4,3.4,20.8,9.3,29.4c3.3,4.8,7.5,9.2,9.5,14.7c3.1,8.3,0.8,17.6,4,25.7
	c3.2,8.2,7.3,16.8,11.9,24.4c4.5,7.4,4.8,14.2,7.6,22c1.3,3.6,3.9,6.7,7.2,8.6c0.1-0.7-1-1.7-1.3-1c4.2,2.2,7.1,6.4,9.5,10.6
	c3.9,7,6.8,14.6,8.5,22.5c2.8,12.9,9.6,23.7,14.4,36c3.5,8.9,7,18,6.6,27.5c-0.2,5.1-1.9,10.5-5.2,14.4c-3.8,4.7-10.1,3.8-15.7,4.4
	c-2.3,0.3-4.9,0.5-6.9-0.7c-2.4-1.5-3.3-4.5-3.6-7.3c-0.6-5.7,3-9.7,3-15.4c0-6.8-4-15.7-6.6-22.1c-3.5-8.8-9.3-16.9-16.4-23.2
	c-22.6-19.9-51.7-29.7-73.9-50c-3-2.8-7.4-5.8-10.8-3.5c-1.9,1.3-2.6,3.7-3.1,5.9c-3.1,14.5-4,29.4-2.7,44.2
	c1.3,14.1-8.7,28.4-16.5,39.8c-6.2,9-13.4,17.3-21.4,24.8c-4.3,4.1-6.3,5.1-12.2,6.2c-4.1,0.8-8.3,0.9-12.5,0.6
	c-3.5-0.2-10.5,0.2-13.5-1.4c-6.3-3.4-0.7-11.9,2.8-15.5c1.8-1.8,3.8-3.7,6.4-3.7c4.2,0,7.5,3.5,11.7,0.5c2.5-1.8,4-5.9,5.9-8.3
	c7-8.7,12.7-19.9,9.8-31.2c-1.8-7.1-7.2-11.7-10-18.1c-3.2-7.3-7.7-14.2-10.8-21.4c-2.8-6.5-2.1-14.3-9.4-18
	c-4.1-2.1-9.1-1.6-13.7-0.9c-14.2,1.9-28.5,3.9-42.7,5.8c-5.9,0.8-11.8,1.8-17.7,2.5c0.3,7.1,0.5,14.2,0.8,21.3
	c0.8,21.6,1.2,42.9,1.5,64.5c0.1,5.9,0.1,11.9-1.3,17.6s-4.5,11.3-9.5,14.5c-8.7-0.3-17.4-1-26.1-1.3c-2.7-3.5-3.2-8.6-1.1-12.6
	c2-3.9,6.5-6.5,10.9-6.3c1.4-10.8-1.9-19.2-5.4-29c-3.9-10.7-4.8-22.1-9.6-32.7c-6.2-13.7-19.8-29.7-35.8-31.8
	c-4.9-0.6-9.9,1.2-14.4,3.2c-4,1.8-8.9,3.2-12.6,5.5c-4.5,2.8-8.3,7.8-12,11.5c-23.6,23.4-47.7,46-70.3,70.2c-3.7,4-7.2,8.4-11.3,12
	c-0.9-5.2-6.3,2.4-9.1,3.2c-5.3,1.6-17.5,3-22.1-1.3c-6.2-5.8-1.2-14.5,5.4-16.9c3.6-1.3,7.5-1.7,11.1-2.9c7.2-2.5,11.1-9.5,15-15.4
	c4.9-7.4,9.5-14.9,14-22.5c4.9-8.3,9.6-16.8,14-25.4c3.3-6.4,6.9-12.6,10-19c4.7-9.8,5.6-19.8,6.3-30.4c0.9-11.9,1.3-24.3,3.2-36.1
	c1.5-9.2,0.7-18.8-8.9-23.5c-3.7-1.8-8-2.4-11.5-4.7c-2.5-1.6-4.4-3.9-6.8-5.8c-5.9-4.6-11.6-4.4-18.2-2.7c-6,1.5-12.7,0.2-16.3-5.3
	c-4.6-5.7-8.3-12.1-10.9-18.9C5.6,223.7,16.3,221.2,21.6,214.6z"/>
</svg>
