<?xml version="1.0" encoding="utf-8"?>
<!-- Generator: Adobe Illustrator 17.1.0, SVG Export Plug-In . SVG Version: 6.00 Build 0)  -->
<!DOCTYPE svg PUBLIC "-//W3C//DTD SVG 1.1//EN" "http://www.w3.org/Graphics/SVG/1.1/DTD/svg11.dtd">
<svg version="1.1" id="Layer_1" xmlns="http://www.w3.org/2000/svg" xmlns:xlink="http://www.w3.org/1999/xlink" x="0px" y="0px"
	 viewBox="0 0 118 106.1" enable-background="new 0 0 118 106.1" xml:space="preserve">
<path fill="#FF9969" d="M4.9,48.2c0.8-1,1.1-2.1,1.7-3c1.3-2,4.1-3.3,6.3-3.8c0.3-0.1,0.3-0.4,0.4-0.7c0.2-0.6-0.2-1.2-0.3-1.9
	c-0.3-1,0-2.1,0.6-2.8c0.3-0.4,1.2,0,1.2,0.5c-0.1-0.4,0-1.1,0.4-1.2c0.4-0.1,0.8,0.1,1.1,0.4c0.3,0.3,0.5,0.7,0.7,1
	c1.1,2.1,2.8,4,4.8,5.4c0.9,0.7,1.9,1,2.9,1.4c1.2,0.6,2.4,1.9,3.4,2.7c1.7,1.4,3.5,2.9,5.7,3.6c1.9,0.6,3.6,0.2,5.4-0.2
	c1.7-0.4,3.4-0.6,5.1-1c4-0.9,8-2.1,12.1-2.8c4-0.7,8-0.7,12-1.1c4.2-0.4,8.4-0.1,12.5,0.9c2,0.5,5.5,1.6,7.3,0.2
	c1.1-0.9,1.9-2.7,2.3-4.1c0.6-1.9,1.2-3.8,2-5.7c1.7-4.1,4.3-7.9,5.8-12.1c1-3,1.5-6.1,1.8-9.3c0.2-1.6,0.3-3.1,0.4-4.7
	c0.1-1.3-0.1-2.1,0.7-3.2c3.2-4.2,8.6-6.8,13.9-7c0.8,0,1.8,0,2.4,0.6c0.5,0.5,0.7,1.4,0.5,2.1s-0.7,1.4-1.2,1.9
	c-1.3,1.3-3.1,1.9-4.8,2.8c-1.6,0.8-3.3,2-3.8,3.8c-0.7,2.2-0.2,4.7-0.3,7c-0.2,2.7-0.7,5.4-1.5,8.1c-1.3,4.1-3.1,8-5,11.9
	c-1,2.2-2.1,4.3-3.1,6.5c-1,2-1.7,3.7-1.7,6c0,2.3,0.8,4.7,2.1,6.6c0.7,1.1,1.7,2.1,2.1,3.3c0.7,1.9,0.2,3.9,0.9,5.8
	c0.7,1.8,1.6,3.8,2.7,5.5c1,1.7,1.1,3.2,1.7,5c0.3,0.8,0.9,1.5,1.6,1.9c0-0.2-0.2-0.4-0.3-0.2c1,0.5,1.6,1.4,2.1,2.4
	c0.9,1.6,1.5,3.3,1.9,5.1c0.6,2.9,2.1,5.3,3.2,8.1c0.8,2,1.6,4.1,1.5,6.2c-0.1,1.1-0.4,2.3-1.2,3.2c-0.9,1.1-2.3,0.8-3.5,1
	c-0.5,0.1-1.1,0.1-1.5-0.2c-0.5-0.3-0.7-1-0.8-1.6c-0.1-1.3,0.7-2.2,0.7-3.5c0-1.5-0.9-3.5-1.5-5c-0.8-2-2.1-3.8-3.7-5.2
	c-5.1-4.5-11.6-6.7-16.6-11.2c-0.7-0.6-1.7-1.3-2.4-0.8c-0.4,0.3-0.6,0.8-0.7,1.3c-0.7,3.3-0.9,6.6-0.6,9.9c0.3,3.2-1.9,6.4-3.7,8.9
	c-1.4,2-3,3.9-4.8,5.6c-1,0.9-1.4,1.1-2.7,1.4c-0.9,0.2-1.9,0.2-2.8,0.1c-0.8,0-2.4,0-3-0.3c-1.4-0.8-0.2-2.7,0.6-3.5
	c0.4-0.4,0.9-0.8,1.4-0.8c0.9,0,1.7,0.8,2.6,0.1c0.6-0.4,0.9-1.3,1.3-1.9c1.6-1.9,2.9-4.5,2.2-7c-0.4-1.6-1.6-2.6-2.3-4.1
	c-0.7-1.6-1.7-3.2-2.4-4.8c-0.6-1.5-0.5-3.2-2.1-4.1c-0.9-0.5-2-0.4-3.1-0.2c-3.2,0.4-6.4,0.9-9.6,1.3c-1.3,0.2-2.6,0.4-4,0.6
	c0.1,1.6,0.1,3.2,0.2,4.8c0.2,4.9,0.3,9.6,0.3,14.5c0,1.3,0,2.7-0.3,4s-1,2.5-2.1,3.2c-2-0.1-3.9-0.2-5.9-0.3
	c-0.6-0.8-0.7-1.9-0.3-2.8c0.5-0.9,1.5-1.5,2.5-1.4c0.3-2.4-0.4-4.3-1.2-6.5c-0.9-2.4-1.1-5-2.2-7.3c-1.4-3.1-4.5-6.7-8.1-7.1
	c-1.1-0.1-2.2,0.3-3.2,0.7c-0.9,0.4-2,0.7-2.8,1.2c-1,0.6-1.9,1.8-2.7,2.6c-5.3,5.3-10.7,10.3-15.8,15.8c-0.8,0.9-1.6,1.9-2.5,2.7
	c-0.2-1.2-1.4,0.5-2.1,0.7c-1.2,0.4-3.9,0.7-5-0.3c-1.4-1.3-0.3-3.3,1.2-3.8c0.8-0.3,1.7-0.4,2.5-0.7C6,99,6.8,97.4,7.7,96.1
	c1.1-1.7,2.1-3.4,3.1-5.1c1.1-1.9,2.1-3.8,3.1-5.7c0.7-1.4,1.6-2.8,2.3-4.3c1.1-2.2,1.2-4.5,1.4-6.8c0.2-2.7,0.3-5.5,0.7-8.1
	c0.3-2.1,0.1-4.2-2-5.3c-0.8-0.4-1.8-0.5-2.6-1c-0.6-0.4-1-0.9-1.5-1.3c-1.3-1-2.6-1-4.1-0.6c-1.4,0.3-2.8,0.1-3.7-1.2
	c-1-1.3-1.9-2.7-2.5-4.3C1.3,50.3,3.7,49.7,4.9,48.2z"/>
</svg>
