<?xml version="1.0" encoding="utf-8"?>
<!-- Generator: Adobe Illustrator 17.1.0, SVG Export Plug-In . SVG Version: 6.00 Build 0)  -->
<!DOCTYPE svg PUBLIC "-//W3C//DTD SVG 1.1//EN" "http://www.w3.org/Graphics/SVG/1.1/DTD/svg11.dtd">
<svg version="1.1" id="Layer_1" xmlns="http://www.w3.org/2000/svg" xmlns:xlink="http://www.w3.org/1999/xlink" x="0px" y="0px"
	 viewBox="0 0 101.1 103.9" enable-background="new 0 0 101.1 103.9" xml:space="preserve">
<path fill="#FF9969" d="M32.6,67.7c-0.2-2.7-0.9-5.4-1.4-8.1c-0.2-0.8-0.3-1.6-0.9-2.3c-0.7-0.8-1.9-1.1-2.6-1.9
	c-0.7-0.8-1-1.9-1.4-2.8c-0.7-1.6-1-3.1-1-4.8c0-1.7-1.2-3.7-0.8-5.3c0.3-1.4,1.5-0.7,2.1-1.4c0.6-0.7,0.2-2.6,0.2-3.5
	c-0.1-2.4-1.5-4.2-2.3-6.5c-0.4-1.1-0.8-2.2-0.9-3.4c-0.1-2.4,1.4-4,2-6.1c0.5-1.7,0.6-3.3,0.6-4.9c0-0.6,0.9-2,1.1-2.7
	c0.4-1.5,0.7-2.5,1.9-3.4c2-1.5,4.8-2.6,6.1-4.8c0.5-0.9,1-1.8,1.7-2.5c0.8-0.8,1.4-0.6,2.4-0.9c0.9-0.3,1.8-0.8,2.8-1.2
	c2.8-0.9,5.9-1.1,8.8-1.2c4.4-0.1,8.9,0.5,13,2.2c3.5,1.4,6.1,3.7,9,6.2c2.1,1.8,4.4,4.6,4.7,7.5c0.1,1.6,0.9,2.5,1.3,4
	c0.1,0.5,0.2,0.9,0.3,1.4c0.6,3.7,0.5,6.6-0.2,10.3c-0.7,3.7-1.4,10.8-1.4,11.6c0,0.7-0.4,4-0.7,6.1c-0.3,2.1-0.9,4.1-1.6,6
	c-1.5,4.2-3.7,8.1-4.8,12.4c-0.5,1.8-1.4,4.3-1,6.2c0.1,0.7,0.5,1.2,0.6,1.9c0.1,0.8-0.3,1.6,0.1,2.3c0.6,1.2,2.4,1.2,3.5,1.8
	c1.5,0.8,2.5,2.4,3.6,3.6c2.2,2.4,4.9,4.2,8,5.3c3.8,1.4,7.7,2,11.4,3.7c1.2,0.6,2.4,1.4,3.1,2.6c1,1.6,2.1,6,0.3,7.4
	c-1,0.8-2.4,0.9-3.7,0.9c-22.1,0.8-44.3,0.4-66.3,0.1c-5-0.1-9.9-0.1-14.9-0.2c-2.3,0-4.5-0.4-6.8-0.2c-2.6,0.2-5,0.3-7.6-0.3
	c-0.4-1.4-0.8-2.7-0.8-4.1s0.2-2.9,0.9-4c1.1-1.7,3.2-2.5,5.1-3.3c2.3-0.9,4.7-1.3,6.9-2.2c2.5-1.1,4.9-2.5,7.4-3.6
	c2.8-1.2,5.1-2.3,7.7-4.1c1.8-1.2,4.5-2.5,4.6-4.9C32.8,73.8,32.8,70.6,32.6,67.7z"/>
</svg>
